<?xml version="1.0" encoding="utf-8"?>
<!-- Generator: Adobe Illustrator 23.0.6, SVG Export Plug-In . SVG Version: 6.00 Build 0)  -->
<svg version="1.1" id="Layer_1" xmlns="http://www.w3.org/2000/svg" xmlns:xlink="http://www.w3.org/1999/xlink" x="0px" y="0px"
	 viewBox="0 0 169 169" style="enable-background:new 0 0 169 169;" xml:space="preserve">
<style type="text/css">
	.st0{fill:#FFFFFF;}
</style>
<title>insta</title>
<path d="M139.9,157.5c-2.4,0-4.8,0-7.1,0c-1.1,0-2.3-0.3-3.4-0.4c-0.7,0-1.4,0-2.1,0.2c-0.2,0-0.5,0.2-0.7,0.2
	c-3.2-0.2-6.1,1.3-9.2,1.7c-1.4,0.2-2.7,0.6-4,1.2c-2.2,1-4.6,0.7-6.9,0.7c-3.4,0-6.7,0-10.1-0.1c-0.8,0-1.5-0.3-2.3-0.4
	c-2-0.3-4.1-0.5-6.1-0.4c-3.5,0.4-6.9,1.3-10.3,1.9c-1.2,0.2-2.5,0.1-3.8,0.2c-2.6,0.2-5.2,0.5-7.9,0.7c-3.3,0.2-6.6,0.4-9.9,0.7
	c-1.7,0.3-3.4,0.6-5.1,1.1c-0.3,0.1-0.6,0.1-0.9,0c-0.9-0.2-1.8-0.4-2.7-0.5c-1.7-0.1-3.4-0.1-5.1-0.1c-0.3,0-0.6-0.1-0.9-0.2
	c-1.2-0.7-2.5-1.1-3.9-1c-1.9-0.1-3.9-0.3-5.8-0.4c-1.1,0-2.3,0.2-3.4,0.2c-3.8-0.1-7.7,0-11.2-1.8c-2.1-1.3-4.1-2.7-5.9-4.4
	c-0.2-0.2-0.2-0.7-0.3-1c-0.1-0.6-0.2-1.2-0.5-1.7c-1.5-2.5-1.4-5.3-1.5-8c0-1.4-0.1-2.7-0.1-4.1c0-1.1,0.1-2.3,0.2-3.4
	c0-0.7,0-1.5-0.1-2.2c-0.2-2.4-0.3-4.8-0.7-7.2c-0.5-2.8-0.2-5.8-0.3-8.6c-0.1-2-0.2-4-0.3-6s-1.1-4.2-0.5-6.4
	c0.1-0.8,0-1.6-0.1-2.4c-0.1-0.5-0.1-0.9,0-1.4c0.3-1.3,0.2-2.6-0.2-3.9c-0.2-1-0.2-2.1-0.2-3.1c-0.1-2.2-0.4-4.3-0.5-6.5
	c-0.1-1.7-0.1-3.4-0.3-5.1c-0.1-0.7-0.1-1.3-0.3-2c-0.3-2-0.8-4-1-6c0-1,0.1-1.9,0.3-2.9c0-0.6-0.1-1.2-0.2-1.8c0-0.3,0-0.7,0-1
	c0-0.4,0-0.8,0-1.1c0.2-1.5-0.7-2.9,0-4.4c0.1-0.5,0.2-1.1,0.1-1.6c0-0.7,0.1-1.3,0.1-2c0-0.5,0-1,0-1.5s0-1.1,0-1.6
	c0-0.2,0.1-0.3,0.1-0.5c-0.9-2.2-0.1-4.6-0.8-6.8c-0.2-1.1-0.6-2.1-1.2-3.1C1.3,47,2,44.7,1.9,42.5c0.1-0.5,0-1-0.2-1.5
	c-0.5-0.7-0.6-1.7-0.2-2.5c0.4-0.6,0.3-1.4-0.3-1.8c0,0-0.1-0.1-0.1-0.1c-0.2-0.2-0.3-0.6-0.3-0.9c0.1-1.3,0.3-2.6,0.4-3.9
	c0-0.3-0.2-0.6-0.5-0.9c-0.7-0.6-0.9-1.5-0.5-2.3c0.8-2.1,1.6-4.2,2.3-6.4c0.4-1.1,0.4-2.4,0.9-3.5C4,17.3,4.9,15.8,6,14.5
	c0.9-1,1.8-1.8,2.1-3.4c0.2-1.4,1.9-1.4,3-1.9c0.2-0.1,0.6,0.1,0.8-0.1c1.8-1.3,3.9-1.3,5.8-1.8c1.4-0.3,2.9-0.6,4.3-0.9
	c1.6-0.3,3.2-0.5,4.8-0.6c2.6-0.2,5.2-0.3,7.8-0.4c0.3,0,0.6,0.1,0.9,0.1c0.3,0,0.7,0.2,0.9,0.1c1.5-1.1,3.4-0.5,5-1.1
	c1.2-0.2,2.5-0.3,3.7-0.2c1.1,0,2.2-0.1,3.3-0.2C49.4,4.2,50.2,4,51,3.9c2.8-0.2,5.5-0.5,8.3-0.6c1.9-0.1,3.8,0.1,5.6,0.1
	c3.4-0.1,6.8-0.3,10.2-0.4c1.1,0,2.2,0,3.3,0.1c1.7,0.1,3.4,0.2,5.1,0.3c2,0,3.9,0,5.9-0.1c3.2-0.2,6.5-0.7,9.7-0.9
	c1.6-0.1,3.2-0.1,4.8,0c2.5,0.1,5,0.2,7.5,0.4c2.1,0.1,4.2,0.5,6.4,0.5c1.8,0,3.6-0.2,5.4-0.3c1.8-0.2,3.6-0.2,5.4-0.1
	c2,0.2,3.9,0.6,5.9,1.1c1.4,0.4,2.7,1.3,4.2,1.6c1.4,0.2,2.7,0.3,4.1,0.2c0.7,0.1,1.3,0.2,2,0.4c0.7,0.2,1.4,0.5,2.1,0.8
	c0.4,0.1,0.9,0.1,1.1,0.4c1,1.2,1.9,2.5,2.6,3.9c0.5,1.2,0.8,2.5,1.1,3.8c0.1,0.2,0.2,0.4,0.3,0.6c0.7,0.5,0.5,0.9,0,1.5
	c-0.3,0.6-0.4,1.3-0.3,1.9c0,1.7,0.1,3.3,0.3,5c0.1,0.9,0.3,1.8,0.5,2.6c0.2,0.9,0.5,1.9,0.7,2.8c0.5,2,1,3.9,1.4,5.9
	c0.8,3.6,1.6,7.2,2.4,10.9c0.7,3.1,1.4,6.3,2,9.5c0.2,1,0.2,2,0.3,3.1c0.2,1.4,0.5,2.9,0.8,4.3c0.1,0.3,0.2,0.7,0.2,1
	c0.2,2.7,0.3,5.4,0.6,8.1c0.6,4.7,1.5,9.5,2.2,14.2c0.1,1.5,0.3,3,0.6,4.5c0.6,2.5,0.9,5.1,0.9,7.6c0.2,2.6,0.3,5.2,0.5,7.8
	c0,0.5,0,1,0.2,1.5c0.5,2.1,0.6,4.3,0.3,6.5c-0.1,2.5,0,5.1,0.3,7.6c-0.1,1.1-0.2,2.3-0.5,3.4c-0.1,0.7-0.1,1.4-0.2,2.1
	c-0.3,1.6-0.5,3.2-0.9,4.8c-0.6,2.4-1.4,4.8-1.9,7.2c-0.2,0.7,0.1,1.5,0,2.2c-0.4,2.1-1,4.1-1.5,6.2c-0.1,0.6-0.3,1.2-0.4,1.8
	c-0.5,1.1-1.2,2-2.2,2.7c-1,0.4-2,1.1-3,1.5c-1.1,0.4-2.3,0.8-3.5,1.1c-1.4,0.4-2.7,0.7-4.1,1l-8,1.9L139.9,157.5z M137.4,79.3
	l0.3-0.1c0-0.8-0.1-1.5-0.3-2.2c-0.2-0.7-0.7-1.4-0.9-2.1c-0.7-2.7-1.3-5.5-2-8.2c-0.4-1.4-0.4-3-1.6-4c-0.6-0.6-1.2-1.2-1.8-1.9
	c-0.9-1-1.2-2.5-2.6-3c-0.1,0-0.1-0.3-0.2-0.4c-0.5-0.7-1-1.4-1.5-2.1c-0.2-0.3-0.4-0.6-0.5-0.9c-0.1-0.4-0.3-0.9-0.5-1.3
	c-1.2-1.6-2.4-3.2-3.6-4.7c-0.3-0.4-0.7-0.7-1.2-1c-1.7-1-3.4-1.9-5-2.9c-0.9-0.5-1.6-1.2-2.4-1.7c-0.6-0.4-1.2-0.8-1.8-1.1
	c-1.5-0.9-3.6-0.8-4.7-2.5c-0.1-0.1-0.5-0.1-0.7-0.2c-0.5-0.2-1-0.4-1.5-0.5c-0.9-0.3-1.8-0.5-2.7-0.7c-1.5-0.2-3-0.1-4.5-0.3
	c-2.1-0.3-4.1-0.8-6.1-1c-2.3-0.3-4.6-0.4-6.9-0.4c-3.1,0-6.1-1.7-9.3-0.2c-0.1,0.1-0.3,0-0.5,0c-1.3,0.1-2.7-0.5-3.9,0.7
	c-0.1,0.1-0.3,0.1-0.5,0.1c-1.7,0.3-3.4,0.5-5.1,1c-1.2,0.3-2.3,0.7-3.4,1.2c-1.8,0.7-3.6,1.4-5.4,2.2c-0.3,0.1-0.5,0.5-0.7,0.8
	c-0.4,0.5-0.8,1-1.3,1.4c-1.2,1.1-2.5,2.2-3.7,3.4c-0.7,0.7-1.2,1.6-2,2.3s-1.9,1.5-2.7,2.4c-1.3,1.4-2.5,3-3.8,4.5
	s-2.4,2.9-3.5,4.4c-0.7,1.1-1.4,2.2-2.1,3.3c-0.6,1.1-1.3,2.3-1.8,3.5s-0.9,2.2-1.3,3.4c-0.8,1.6-1.3,3.2-1.7,4.9
	c-0.2,2.4-0.3,4.9-0.1,7.4c0,2.7,0.2,5.3,0.3,8c0,0.2,0,0.4,0,0.6c0.2,1.5,0.5,3,0.7,4.5c0.3,2.2,0.5,4.4,0.8,6.5
	c0.3,2,0.8,3.9,1.5,5.7c0.9,2.2,2.1,4.2,3.2,6.3c0.3,0.4,0.5,0.8,0.6,1.3c0.3,1.9,1.7,2.7,3.1,3.6c0.3,0.2,0.6,0.4,0.8,0.6
	c0.8,0.8,1.6,1.6,2.5,2.4c1.6,1.3,3.3,2.4,4.9,3.8c2.2,1.9,4.4,3.9,7.1,5c0.1,0.1,0.3,0.2,0.4,0.3c1.6,1.6,3.6,2.8,5.7,3.5
	c0.8,0.3,1.6,0.6,2.4,0.9c3.6,1.5,7.4,2.5,11.3,2.9c1.9,0.3,3.9,0.2,5.8-0.2c2.2-0.7,4.2,0.1,6.3,0c2.3-0.1,4.7,0.3,7,0.3
	c1.6,0,3.3-0.6,4.9-0.6c1.6-0.1,3.2-0.5,4.6-1.2c0.8-0.3,1.6-0.6,2.5-0.9c2-0.8,4.3-1.2,5.9-2.5c3.4-2.6,7.1-5,9.5-8.6
	c0.4-0.6,0.8-1.1,1.3-1.5c2.5-1.8,4.5-4.1,5.9-6.8c0.6-0.9,1.2-1.8,1.6-2.8c0.8-1.9,1.5-3.9,2.3-5.8c0.4-0.8,0.8-1.7,1.1-2.6
	c0.6-2,1-4.1,1.5-6.2c0.5-1.4,0.8-2.8,1.1-4.3c0.2-3,0.2-6.1,0.3-9.2c0-0.6-0.1-1.3-0.2-1.9C138.2,82.3,137.8,80.8,137.4,79.3
	L137.4,79.3z M80.4,7.1l-0.1-0.5c-0.5,0-1.1-0.1-1.6-0.1c-3.1,0.1-6.3,0.2-9.5,0.2c-3.8,0-7.6,0-11.5,0.1c-2.3,0-4.6,0.2-6.9,0.3
	c-1.6,0.1-3.2,0.4-4.9,0.7v0.5c1,0,2,0,2.9,0c0.8,0,1.6-0.3,2.4-0.3s1.8,0.1,2.7,0c1.5,0,3-0.2,4.5-0.2c4.4,0,8.7,0,13,0
	c1,0,2.1,0,3.2,0.1c1,0.1,2,0.1,2.9,0C78.7,7.7,79.6,7.4,80.4,7.1L80.4,7.1z M29.9,26.4c0.8-0.2,1.6-0.3,2.3-0.6
	c2.3-0.8,4.6-1.7,7-2.5c0.4-0.2,0.9-0.2,1.4-0.3c0.6,0,1.2-0.2,1.7-0.5c1-0.8,2.1-1.3,3.4-1.3c0.3,0,0.6-0.4,0.9-0.6
	c-0.3-0.1-0.7-0.5-1-0.4c-1.4,0.2-2.7,0.6-4.1,0.9c-3,0.7-6,1.6-9,2.2C30.2,23.7,29.9,23.9,29.9,26.4L29.9,26.4z M80.8,20.4
	c-5.8,0-11.6-1.2-17.3,0.5v0.6C69.3,21.4,75.1,21.9,80.8,20.4L80.8,20.4z M12,50.9c-0.3,0.4-0.5,0.5-0.5,0.6
	c-0.1,1.4-0.2,2.7-0.3,4.1c0,0.3,0,0.6,0,1c0.1,1.1,0.2,2.3,0.3,3.4c0.2,1.6,0.5,3.2,0.8,4.9c0.1,0.3,0.4,0.6,0.6,0.9
	c0.2-0.3,0.3-0.7,0.4-1.1c0.1-1.8-0.7-3.5,0-5.3c0.1-0.2-0.1-0.5-0.2-0.8c-0.2-0.7-0.4-1.4-0.5-2.1c-0.1-1.1-0.1-2.1-0.2-3.2
	C12.4,52.5,12.2,51.7,12,50.9L12,50.9z M132.2,136.2l0.4,0.5c0.5-0.2,1-0.4,1.4-0.7c0.9-0.6,1.8-1.2,2.7-1.7c2.6-1,2.9-1.3,2.5-3.8
	c0-0.3-0.8-0.9-0.9-0.8c-0.5,0.3-1.2,0.8-1.4,1.3c-0.4,1.5-1.7,2.3-2.6,3.3C133.6,134.9,132.9,135.6,132.2,136.2z M66.9,159.2
	c-0.9-0.7-13.7-1-15.2-0.3C52.7,159.7,66.1,160,66.9,159.2L66.9,159.2z M141.3,15l-0.3,0.4c0.4,0.8,0.8,1.6,1.1,2.4
	c0.5,1.7,2.3,2.7,2.4,4.6c0,0.4,0.7,0.9,1,1.3l0.4-0.1c0.1-0.6,0.1-1.2,0-1.8c-0.3-0.8-1-1.5-1.2-2.3c-0.4-1.1-1.2-2.1-0.7-3.5
	c0-0.3-0.2-0.7-0.4-0.9C142.7,15.1,142,15,141.3,15L141.3,15z M157.9,131.1h-0.2c0-0.5-0.1-1-0.1-1.5c-0.2-0.3-0.4-0.7-0.6-0.9
	c-0.2,0.3-0.6,0.7-0.6,1c0,0.7,0.3,1.5,0.2,2.2c-0.2,2.3-0.5,4.6-0.8,6.9c0,0.3,0.2,0.6,0.3,0.9c0.3-0.2,0.8-0.2,0.9-0.5
	c0.3-0.6,0.4-1.3,0.5-2C157.7,135.2,157.8,133.2,157.9,131.1L157.9,131.1z M124.3,6.6c0.1,0.8,0.8,1.3,1.5,1.2c0,0,0,0,0,0
	c0.9,0,1.8,0,2.8,0c1.1,0.1,2.1,0.4,3.2,0.6c0.9,0.2,1.7,0.3,2.6,0.4c0.2,0,0.5-0.3,0.7-0.5c0-0.1-0.2-0.5-0.4-0.6
	C131.4,6.5,127.8,6.1,124.3,6.6z M16.6,27.4l-0.5-0.2c-0.9,1.2-1.8,2.3-2.6,3.6c-1,1.5-1.9,3.1-2.8,4.7c-0.2,0.4-0.3,0.8-0.5,1.3
	c0.5-0.2,0.9-0.4,1.4-0.6c0.1,0,0.2-0.2,0.2-0.3c1.9-2.4,3.5-4.9,4.7-7.7C16.6,28,16.6,27.7,16.6,27.4z M58.1,15.7H60
	c1.4,0,2.8,0,4.2-0.1c0.3,0,0.6,0,0.9-0.1c0.5-0.4,1.2-0.4,1.8,0c0.3,0.2,0.8,0,1.2,0v-0.4c-1.5-0.7-2.8-1.7-4.8-1.5
	C61.4,13.9,59.7,13.8,58.1,15.7z M149,99c-0.3-1.3-0.5-2.3-0.9-3.3c-0.1-0.2-0.5-0.3-0.7-0.5c-0.1,0.2-0.5,0.5-0.4,0.7
	c0.2,1.4-0.7,2.9,0.1,4.3c0.1,0.2-0.1,0.6-0.1,0.9c-0.1,0.6-0.2,1.1-0.2,1.7c0,0.3,0.3,0.6,0.5,0.9c0.3-0.2,0.7-0.4,0.8-0.6
	C148.4,101.7,148.7,100.2,149,99L149,99z M12.5,151.3c0.7-1.3,0.1-11.5-0.8-12.5C11.9,143.1,11.1,147.3,12.5,151.3z M28.4,36.9
	l0.4,0.1c0.3-0.5,0.6-1,0.9-1.5c0.7-1.6,1.3-3.2,2-4.8c0.1-0.3,0-0.8-0.2-0.9c-0.6-0.3-2.1,0.6-2.2,1.2c-0.3,1.6-0.7,3.3-0.9,4.9
	C28.2,36.2,28.3,36.5,28.4,36.9z M29.5,91.8H29c-0.7,0.7-0.9,1.7-0.5,2.6c0.1,0.3-0.1,0.6-0.1,1c-0.1,0.7-0.2,1.3-0.1,2
	c0.1,0.6,0.4,1.2,0.7,1.7c0.2,0.2,0.4,0.5,0.6,0.7c0.2-0.2,0.5-0.4,0.5-0.6c0-1.1-0.1-2.2-0.2-3.4c0-0.4-0.1-0.9-0.2-1.3
	C29.6,93.5,29.5,92.6,29.5,91.8z M157.1,98c0,0.5-0.1,1.3-0.1,2c0,0.3,0.2,0.8,0.4,0.8c0.3,0,0.7-0.1,0.9-0.3
	c0.2-0.4,0.2-0.8,0.2-1.2c0-0.9-0.2-1.7-0.2-2.6c0-1,0.2-2.1,0.1-3.1c0-0.4-0.7-0.6-1.1-1c-0.2,0.4-0.5,0.7-0.5,1.1
	C156.8,95,156.9,96.4,157.1,98z M73.1,148.9v-0.3c-0.2-0.2-0.5-0.3-0.8-0.4c-1.1-0.1-2.2-0.1-3.3-0.2c-1.7-0.2-3.4-0.4-5.1-0.5
	c-0.3,0-0.7,0.2-1,0.4c0.3,0.2,0.5,0.5,0.9,0.6c2.8,0.2,5.5,0.4,8.3,0.6C72.4,149,72.8,149,73.1,148.9z M109.2,36.2l-0.2,0.3
	c0.8,0.5,1.5,0.9,2.3,1.4c1.1,0.7,2.2,1.4,3.3,2c0.5,0.3,1.1,0.6,1.6,0.9c-0.1-0.6-0.4-1.2-0.7-1.8C113.8,37.1,111.3,37,109.2,36.2
	L109.2,36.2z M133.7,151.7v0.4c0.5,0.2,1,0.3,1.5,0.3c1.9,0,3.8-0.1,5.7-0.2c0.8,0,1.5-0.1,2.3-0.2l0-0.4c-0.4-0.2-0.7-0.6-1.1-0.6
	c-1.3,0-2.5,0-3.8,0.1c-1.1,0.1-2.3,0.2-3.4,0.4C134.5,151.6,134.1,151.7,133.7,151.7L133.7,151.7z M24.1,32.4l-0.5-0.5
	c-0.2,0.2-0.5,0.3-0.6,0.6c-0.7,1.5-1.3,2.9-2,4.4C21,37.3,21,37.7,21,38c0.4-0.1,1.1-0.2,1.2-0.5C23,36,23.5,34.3,24.1,32.4z
	 M130.7,148.7c0.4,0.1,0.8,0.2,1.2,0.2c2.1-0.3,4.2-0.7,6.3-1.1c0.3-0.1,0.6-0.4,0.9-0.6c-0.3-0.1-0.6-0.4-0.9-0.4
	c-1.2,0-2.5,0.1-3.7,0.4C133.1,147.5,131.8,147.5,130.7,148.7z M139.1,40.3c0-1.8-0.5-3.6-1.4-5.1c-0.1-0.2-0.5-0.2-0.7-0.3
	c-0.1,0.2-0.3,0.5-0.2,0.7c0.4,1.6,0.8,3.2,1.2,4.7c0.1,0.3,0.4,0.4,0.7,0.4C138.9,40.7,139.1,40.3,139.1,40.3z M130.8,29.4
	c0.1-0.7,0.1-1.4,0-2.1c-0.4-0.8-0.5-1.6-0.4-2.4c0-0.1-0.3-0.5-0.5-0.5c-0.6,0-1.3,0-1.9,0l-0.1,0.4
	C129.4,25.9,129,28.3,130.8,29.4L130.8,29.4z M144.7,10.4c0.3,1.1,0.7,2.1,1.2,3.1c0.4,0.5,1.1,0.7,1.7,0.7c0.8,0,1-0.8,0.5-1.4
	c-0.6-0.7-1.2-1.4-1.9-2.1C145.9,10.5,145.3,10.5,144.7,10.4L144.7,10.4z M54.5,29.6l1.4-1.2c0.6-0.5,1.1-1.1,1.7-1.5
	c0.3-0.2,0.7-0.3,0.9-0.5s0.2-0.5,0.2-0.8c-0.3,0-0.6-0.2-0.8,0c-1.4,0.9-2.8,1.8-4.1,2.7c-0.2,0.2-0.3,0.5-0.2,0.8
	C53.6,29.2,54.1,29.3,54.5,29.6z M25,141.9c0.6-0.5,1.2-1,1.1-1.1c-0.7-1.3-1.4-2.5-2.2-3.7c-0.1-0.2-0.6,0-1,0c0,0.3,0,0.7,0.1,0.8
	c0.9,0.6,0.7,1.6,0.9,2.4C24.1,140.8,24.5,141.2,25,141.9z M22.9,9.7l0.1,0.6c0.9,0,1.7,0,2.6,0c1.1,0,2.2-0.1,3.3-0.2
	c0.4-0.1,0.7-0.3,1-0.5c-0.3-0.1-0.6-0.4-1-0.4c-1.5,0-3.1,0-4.7,0C23.8,9.3,23.3,9.5,22.9,9.7L22.9,9.7z M27.1,148.2
	c0.5-0.6,1.1-1.2,1-1.4c-0.4-0.8-1-1.6-1.6-2.3c-0.1-0.1-0.6-0.1-0.9,0s-0.2,0.5-0.2,0.7c0,0.5,0.1,1,0.3,1.5
	C26.1,147.3,26.6,147.8,27.1,148.2z M55,150.7v-0.4l-6.3-0.6C49.2,151.1,53,151.5,55,150.7L55,150.7z M138.8,64.9l0.5-0.1
	c0.1-0.3,0.1-0.5,0.1-0.8c-0.2-1.4-0.4-2.8-0.6-4.2c-0.1-0.4-0.3-0.8-0.6-1.2c-0.3,0.4-0.4,0.9-0.5,1.4c0,0.7,0.2,1.5,0.4,2.2
	C138.3,63.1,138.5,64,138.8,64.9L138.8,64.9z M148,68.9L148,68.9c0.1-0.4,0-0.7,0-1c-0.1-0.4-0.4-0.8-0.7-1c-0.4-0.1-0.7,0-1,0.3
	c-0.2,0.4-0.2,0.8-0.1,1.2c0.1,0.5,0.3,1.1,0.6,1.5c0.1,0.3,0.5,0.4,0.8,0.6c0.2-0.2,0.3-0.5,0.5-0.7C148,69.4,148,69.2,148,68.9
	L148,68.9z M18,155.6l0.9-0.5c-0.2-0.3-0.3-0.6-0.5-0.8c-0.1-0.3-0.3-0.5-0.6-0.7c-0.4-0.2-0.9-0.5-1.2-0.4
	c-0.4,0.3-0.8,0.7-0.9,1.2c-0.1,0.2,0.4,0.7,0.8,0.8C17,155.4,17.5,155.5,18,155.6z M40.1,27.2l-0.2-0.5c-0.5,0-1,0-1.5,0.1
	c-1.1,0.4-2.1,0.9-3.1,1.4c-0.3,0.1-0.4,0.5-0.6,0.8c0.4,0.1,0.8,0.1,1.1,0.1c1-0.3,2-0.8,2.9-1.2C39.2,27.7,39.6,27.4,40.1,27.2z
	 M155.6,49.9c-0.2-0.8-0.4-1.6-0.7-2.3c-0.1-0.2-0.6-0.3-0.9-0.3c-0.1,0-0.3,0.5-0.3,0.7c-0.1,0.4-0.1,0.8,0,1.2
	c0.1,0.4,0.3,0.8,0.6,1.1c0.2,0.2,0.5,0.2,0.8,0.1C155.3,50.4,155.5,50.2,155.6,49.9L155.6,49.9z M16.1,11.7
	c-1.9-0.5-3.8,0.5-4.5,2.3C12.5,14.3,15.1,12.9,16.1,11.7z M149.2,131.7l0.3-0.2l-0.7-0.7c-0.2,0.3-0.4,0.5-0.6,0.8
	c-0.2,0.5-0.3,0.9-0.5,1.4c-0.1,0.4-0.1,0.7-0.2,1.1c0.4,0.1,0.8,0.1,1.2,0c0.8-0.2,1-0.7,0.7-1.5
	C149.5,132.4,149.4,132.1,149.2,131.7z M158.9,143.8c-0.9,0-1.4,0.1-1.3,1c0,0.4-0.1,0.8-0.1,1.1c0,0.3,0.1,0.6,0.2,0.9
	c0.3-0.1,0.7-0.1,0.8-0.2c0.3-0.5,0.5-1.2,0.8-1.7C159.9,144,159.4,143.8,158.9,143.8L158.9,143.8z M45.9,141.9
	c0.1-1.4-0.7-1.5-1.3-1.4c-0.4,0.1-1.1,0.5-1.1,0.8c-0.1,0.6,0.2,1.1,0.8,1.3c0.2,0,0.3,0,0.5,0C45.2,142.6,45.6,142.1,45.9,141.9
	L45.9,141.9z M114.1,156.3c-1.6,0.1-2.9,0.2-4.2,0.3c-0.1,0-0.4,0.2-0.4,0.4c0,0.2,0.1,0.4,0.3,0.6
	C110.6,158,113.1,157.5,114.1,156.3z M120.8,132c1.7,0.4,3.4-0.7,3.8-2.5c0-0.2,0.1-0.4,0.1-0.5L120.8,132z M24.7,16.6
	c-1.1-0.4-2.4-0.4-3.5,0.1c-0.3,0-0.5,0.4-0.7,0.6c0.3,0.2,0.5,0.6,0.8,0.6C22.6,17.9,23.7,17.4,24.7,16.6z M125.5,27.8l-1.2,0.8
	c0.7,0.5,1.4,0.9,2.2,1.4c0.1,0.1,0.8-0.4,0.8-0.5C127.2,28.4,126.4,27.7,125.5,27.8L125.5,27.8z M149.3,137.4
	c0.4,0.1,0.6,0.2,0.7,0.2c1-0.5,2-1,3-1.6c0.1-0.1,0.1-0.5,0.1-0.8c-0.3,0-0.7-0.1-0.9,0c-0.7,0.4-1.3,0.8-2,1.3
	C149.9,136.7,149.6,137,149.3,137.4L149.3,137.4z M23,152.7l1.6-1.6c-0.4-0.3-0.7-0.8-1.1-0.9c-0.9-0.2-1.4,0.3-1.2,1.2
	C22.3,151.7,22.6,152,23,152.7z M26.5,158.8c-1.3-1-4.2-1.5-5.1-0.7C23.1,158.1,24.5,159.3,26.5,158.8z M101.1,34.4V34
	c-0.8-0.2-1.6-0.5-2.4-0.7c-0.4-0.1-0.8-0.1-1.2-0.1c-0.3,0.1-0.5,0.5-0.8,0.7c0.3,0.2,0.6,0.3,0.9,0.4c0.8,0.1,1.6,0.1,2.4,0.1
	C100.4,34.5,100.7,34.5,101.1,34.4z M102.8,5.9c0.8,0.9,4.2,1,5.5,0H102.8z M43.3,8.4L43.2,8c-1.4-0.6-4.5-0.3-5.2,0.7L43.3,8.4z
	 M155.4,150.2c1,0.2,2-0.6,2.2-1.6c0-0.2,0-0.5,0-0.7C155.9,148.2,155.7,148.4,155.4,150.2z M150.5,140.9l-0.1,0.4
	c0.5,0.3,1.1,0.4,1.6,0.6c0.4,0,0.7-0.3,0.8-0.6c0.1-0.4,0.1-0.8,0-1.2c-0.4,0-0.7,0.1-1.1,0.2C151.3,140.4,150.9,140.7,150.5,140.9
	z M22.5,145.5h-0.4c-0.1,0.6-0.1,1.3,0,1.9c0,0.2,0.5,0.5,0.8,0.5c0.3,0,0.7-0.2,0.9-0.5c0.1-0.2-0.1-0.6-0.2-0.8
	C23.2,146.2,22.8,145.8,22.5,145.5L22.5,145.5z M36.2,32.5c-1.1,0.4-2,0.6-2.8,0.9c-0.2,0.1-0.3,0.4-0.2,0.6
	c0.1,0.2,0.3,0.4,0.6,0.5C34.4,34.7,35.9,33.6,36.2,32.5L36.2,32.5z M148.4,108.8c-0.2,0.1-0.6,0.1-0.7,0.3
	c-0.4,0.9-0.8,1.8-1.1,2.7c-0.1,0.2,0.2,0.6,0.5,0.7c0.3,0,0.6-0.2,0.7-0.4C148.1,111.1,148.2,110,148.4,108.8L148.4,108.8z
	 M130.1,37.7c-1,1.8-0.3,3.4,1,3.2C130.7,39.8,130.4,38.7,130.1,37.7z M145,151.5c1,0.5,2.1,0.5,3-0.1c0.2-0.1,0.3-0.6,0.2-0.8
	s-0.5-0.3-0.7-0.3C146.8,150.6,146.1,151,145,151.5z M77.1,158.2l0.2,0.7c0.7-0.1,1.4-0.1,2.1-0.3c0.2,0,0.4-0.4,0.5-0.7
	c-0.2-0.2-0.5-0.5-0.7-0.4C78.5,157.8,77.8,158,77.1,158.2L77.1,158.2z M22.9,23.2c0.5-0.2,1-0.5,1.4-0.9c0.3-0.4,0.4-0.9,0.5-1.4
	c0,0-0.5-0.3-0.6-0.2c-0.4,0.3-0.7,0.6-1,1C23.1,22.3,23,22.8,22.9,23.2L22.9,23.2z M139.2,41.8l-0.3,0.1c0,0.6,0,1.2,0,1.8
	c0,0.2,0.4,0.5,0.5,0.5c0.3,0,0.7-0.2,0.9-0.4c0.1-0.2,0.1-0.5,0-0.7C140,42.7,139.6,42.3,139.2,41.8L139.2,41.8z M9.4,30
	c1,0.3,2.2-0.7,2.2-1.3c0-0.2-0.7-0.5-0.7-0.4C10.3,28.9,9.9,29.5,9.4,30z M163.1,122.5l-0.6-0.1c-0.1,1-0.2,2-0.2,3
	c0,0.1,0.3,0.3,0.4,0.3s0.4-0.2,0.4-0.3C163.1,124.5,163.1,123.5,163.1,122.5z M12.1,138c0.8-1.5,0.7-2.3-0.4-2.7
	C11.5,136.2,11,137.1,12.1,138z M137.1,139c1,0.2,2.3-0.5,2.4-1.2c0.1-0.3-0.1-0.5-0.3-0.6c-0.2-0.1-0.4,0-0.5,0.2
	C138.2,137.8,137.7,138.3,137.1,139L137.1,139z M123.4,45.2l0.4-0.4c-0.4-0.6-0.8-1.1-1.2-1.6c-0.1-0.1-0.6,0-0.9,0
	c0,0.2,0,0.6,0.2,0.7C122.4,44.4,122.9,44.8,123.4,45.2L123.4,45.2z M34.4,57.5l-0.2-0.4c-0.4,0.2-1,0.3-1.1,0.5
	c-0.2,0.6-0.3,1.2-0.3,1.8l0.4,0.1L34.4,57.5z M42.2,149.9c1.4,0.9,2.8,0.8,3.5,0H42.2z M59.9,148.2c-0.8-1.4-1.8-1.5-2.8-0.3
	L59.9,148.2z M20.2,21.5l-0.4-0.3c-0.5,0.5-0.9,1.1-1.4,1.7c-0.1,0.2-0.1,0.4,0.1,0.5c0.1,0.1,0.3,0.1,0.5,0.1
	C19.6,22.9,20.4,22.4,20.2,21.5z M147.5,26.6l-0.4,0.4c0,0.6,0,1.3,0.9,1.4c0.2,0,0.4-0.3,0.7-0.4L147.5,26.6z M39.5,13.6l2.4-0.8
	C40.6,12.1,40,12.3,39.5,13.6L39.5,13.6z M148.1,73.9l0.2-0.1c-0.1-0.6-0.2-1.3-0.4-1.9c0-0.2-0.4-0.3-0.6-0.4
	c-0.1,0.3-0.3,0.6-0.2,0.8C147.4,72.8,147.7,73.4,148.1,73.9z M30.9,9.2c1,1,1.6,0.9,2.4-0.1L30.9,9.2z M92.4,25.6v0.5h2.2v-0.5
	H92.4z M20.5,40.5l1-1.2c-0.2-0.1-0.5-0.5-0.6-0.4c-0.4,0.3-0.7,0.6-1.1,0.9L20.5,40.5z M25.3,30.5c-0.5-0.3-0.8-0.6-0.9-0.5
	c-0.3,0.2-0.6,0.5-0.9,0.8c0.3,0.2,0.6,0.5,0.9,0.4S24.9,30.8,25.3,30.5L25.3,30.5z M132.1,18.4c0.4-0.4,0.8-0.7,0.7-0.8
	s-0.4-0.5-0.6-0.8c-0.2,0.2-0.6,0.5-0.6,0.7S131.8,17.9,132.1,18.4z M19.2,17.4c-0.5-0.3-0.8-0.6-1-0.5c-0.3,0.1-0.6,0.3-0.9,0.5
	c0.2,0.2,0.4,0.6,0.6,0.6S18.6,17.7,19.2,17.4L19.2,17.4z M104.4,20v0.2h2.6v-0.5L104.4,20z M131.8,31l0.4-0.5
	c-0.3-0.3-0.7-0.5-1.1-0.7c0,0-0.3,0.3-0.4,0.5L131.8,31z"/>
<path class="st0" d="M137.4,79.3c0.4,1.5,0.9,3,1.2,4.5c0.2,0.6,0.3,1.2,0.2,1.9c-0.1,3.1-0.1,6.1-0.3,9.2c-0.2,1.5-0.6,2.9-1.1,4.3
	c-0.5,2-1,4.1-1.5,6.2c-0.3,0.9-0.7,1.8-1.1,2.6c-0.8,1.9-1.5,3.9-2.3,5.8c-0.5,1-1,1.9-1.6,2.8c-1.4,2.7-3.4,5.1-5.9,6.8
	c-0.5,0.5-0.9,1-1.3,1.5c-2.5,3.7-6.1,6-9.5,8.6c-1.6,1.3-3.9,1.7-5.9,2.5c-0.8,0.3-1.6,0.6-2.5,0.9c-1.4,0.7-3,1.1-4.6,1.2
	c-1.6,0-3.3,0.6-4.9,0.6c-2.3,0-4.7-0.5-7-0.3c-2.1,0.1-4.1-0.6-6.3,0c-1.9,0.4-3.9,0.5-5.8,0.2c-3.9-0.4-7.7-1.4-11.3-2.9
	c-0.8-0.3-1.6-0.6-2.4-0.9c-2.1-0.8-4.1-2-5.7-3.5c-0.1-0.1-0.2-0.2-0.4-0.3c-2.8-1.1-4.9-3.1-7.1-5c-1.6-1.3-3.3-2.5-4.9-3.8
	c-0.9-0.7-1.6-1.6-2.5-2.4c-0.3-0.2-0.5-0.4-0.8-0.6c-1.4-0.9-2.8-1.8-3.1-3.6c-0.1-0.5-0.4-0.9-0.6-1.3c-1.1-2.1-2.4-4.1-3.2-6.3
	c-0.7-1.9-1.2-3.8-1.5-5.7c-0.4-2.2-0.5-4.4-0.8-6.5c-0.2-1.5-0.5-3-0.7-4.5c0-0.2,0-0.4,0-0.6c-0.1-2.7-0.2-5.3-0.3-8
	c-0.1-2.5-0.1-4.9,0.1-7.4c0.4-1.7,1-3.3,1.7-4.9c0.4-1.1,0.8-2.3,1.3-3.4s1.2-2.3,1.8-3.5c0.6-1.1,1.3-2.3,2.1-3.3
	c1.1-1.5,2.3-2.9,3.5-4.4s2.5-3,3.8-4.5c0.8-0.9,1.9-1.5,2.7-2.4s1.2-1.6,2-2.3c1.2-1.2,2.5-2.2,3.7-3.4c0.5-0.4,0.8-0.9,1.3-1.4
	c0.2-0.3,0.4-0.6,0.7-0.8c1.8-0.8,3.6-1.5,5.4-2.2c1.1-0.5,2.3-0.9,3.4-1.2c1.7-0.4,3.4-0.6,5.1-1c0.2,0,0.4,0,0.5-0.1
	c1.1-1.2,2.5-0.6,3.9-0.7c0.2,0,0.4,0.1,0.5,0c3.1-1.5,6.2,0.2,9.3,0.2c2.3,0,4.6,0.1,6.9,0.4c2.1,0.2,4.1,0.7,6.1,1
	c1.5,0.2,3,0.1,4.5,0.3c0.9,0.2,1.8,0.4,2.7,0.7c0.5,0.1,1,0.4,1.5,0.5c0.2,0.1,0.6,0,0.7,0.2c1.1,1.7,3.2,1.6,4.7,2.5
	c0.6,0.3,1.2,0.7,1.8,1.1c0.8,0.6,1.6,1.2,2.4,1.7c1.7,1,3.4,1.9,5,2.9c0.4,0.3,0.8,0.6,1.2,1c1.2,1.5,2.4,3.1,3.6,4.7
	c0.2,0.4,0.4,0.8,0.5,1.3c0.1,0.3,0.3,0.6,0.5,0.9c0.5,0.7,1,1.4,1.5,2.1c0.1,0.1,0.1,0.4,0.2,0.4c1.4,0.5,1.7,2,2.6,3
	c0.6,0.7,1.2,1.3,1.8,1.9c1.2,1.1,1.2,2.6,1.6,4c0.7,2.7,1.3,5.5,2,8.2c0.2,0.7,0.7,1.4,0.9,2.1c0.1,0.7,0.2,1.5,0.3,2.2L137.4,79.3
	z M38.9,82.3c0.2,1,0.5,1.7,0.6,2.5c0.1,0.6,0,1.2,0,1.8c0.2,1.4,0.6,2.8,0.7,4.2c0,1.9,0.4,3.8,1.2,5.6c1.1,2.1,1.3,4.6,2.6,6.7
	c1.2,1.8,2,3.9,3.1,5.8c0.8,1.4,1.8,2.7,2.6,4.1c0.6,1.1,1.1,2.1,2.6,1.6c0.1,0,0.3,0.2,0.4,0.3c1.7,2,3.6,3.8,5.6,5.3
	c1.8,1.3,3.4,2.9,5.3,4.1c1.7,1.1,3.5,2.1,5.4,2.7c2.2,0.6,4.5,1,6.8,1.3c1.5,0.3,3,0.5,4.5,0.8c5.2,1.2,10.3,0.2,15.3-1.1
	c1.8-0.7,3.6-1.5,5.2-2.5c0.3-0.1,0.6-0.4,0.9-0.4c1.6,0.2,2.8-0.7,4-1.5c2.7-1.7,5.7-3.1,8.1-5.2c2.2-2,4-4.3,5.4-6.9
	c1.4-2.5,3.2-4.7,4.1-7.5c0.7-2,2-3.8,2.1-6c0-0.2,0.3-0.4,0.4-0.6c0.3-0.6,0.5-1.2,0.7-1.8c0.1-1,0-2,0.1-3.1
	c0-0.3,0.2-0.5,0.3-0.8c0.3-0.8,0.4-1.6,0.5-2.5c0-2-0.2-4-0.2-6c-0.1-1.6-0.1-3.1-1.2-4.5c-0.2-0.2-0.3-0.4-0.3-0.6
	c-0.2-1.1-0.4-2.2-0.6-3.3c0-0.3-0.2-0.6-0.4-0.8c-1.9-1.3-0.9-3.7-2.1-5.2c-0.3-0.5-0.6-1-0.8-1.6c-0.2-0.4-0.4-0.8-0.6-1.1
	c-0.3-0.6-0.4-1.5-0.8-1.8c-1.3-0.9-1.2-2.6-2.2-3.6c-0.8-0.8-1.2-2.2-2.1-2.5c-2-0.7-3.3-2.3-5-3.3c-0.6-0.4-1.1-0.9-1.6-1.4
	c-0.6-0.5-1.1-1-1.7-1.5c-1.8-1.5-4.4-1.3-6.1-3.1c-0.1-0.1-0.4-0.1-0.6-0.2c-0.7-0.2-1.3-0.4-2-0.7c-1.8-0.8-3.6-1.6-5.4-2.6
	c-1.4-0.7-2.8-0.6-4.2-0.6s-2.8-0.4-4-0.5c-0.3,0.1-0.7,0.2-1,0.3c-0.5,0-0.9-0.3-1.4-0.3c-1.1,0-2.1,0-3.2,0.1
	c-1.1,0.3-2.2,0.5-3.3,0.7c-4.1,0-7.9,1.8-11.8,2.7c-2.2,0.5-4.2,1.9-6.2,2.9c-0.6,0.3-1.3,0.5-1.9,0.8c-0.8,0.3-1.5,0.7-2.1,1.2
	c-1.1,1.1-2.4,2.1-3.7,3c-1.4,0.9-2.9,1.8-3.6,3.5c-0.6,1.2-1.3,2.4-2.1,3.5c-0.9,1.3-2,2.6-2.9,3.9c-0.3,0.5-0.5,1-0.6,1.5
	c0.1,0.9,0.1,1.8,0.1,2.7c-0.4,1.6-0.9,3.1-1.6,4.6c-0.7,1.3-1.1,2.7-1,4.2C39.7,80.4,39.5,81.5,38.9,82.3L38.9,82.3z"/>
<path class="st0" d="M80.4,7.1c-0.8,0.3-1.7,0.6-2.5,0.7c-1,0.1-2,0.1-2.9,0c-1,0-2.1-0.1-3.2-0.1c-4.4,0-8.7,0-13,0
	c-1.5,0-3,0.1-4.5,0.2c-0.9,0-1.8-0.1-2.7,0s-1.6,0.3-2.4,0.3c-1,0.1-2,0-2.9,0V7.8c1.6-0.2,3.2-0.5,4.9-0.7
	c2.3-0.2,4.6-0.3,6.9-0.3c3.8-0.1,7.6,0,11.5-0.1c3.1,0,6.3-0.1,9.5-0.2c0.5,0,1.1,0,1.6,0.1L80.4,7.1z"/>
<path class="st0" d="M29.9,26.4c0.1-2.5,0.4-2.6,2.6-3.1c3-0.6,6-1.5,9-2.2c1.4-0.3,2.7-0.7,4.1-0.9c0.3,0,0.6,0.3,1,0.4
	c-0.3,0.2-0.6,0.5-0.9,0.6c-1.2,0-2.4,0.5-3.4,1.3c-0.5,0.3-1.1,0.5-1.7,0.5c-0.5,0.1-0.9,0.2-1.4,0.3c-2.3,0.8-4.6,1.7-7,2.5
	C31.4,26.1,30.7,26.2,29.9,26.4z"/>
<path class="st0" d="M80.8,20.4c-5.7,1.5-11.5,1-17.2,1.1v-0.6C69.2,19.2,75.1,20.3,80.8,20.4z"/>
<path class="st0" d="M12,50.9c0.2,0.8,0.4,1.5,0.5,2.3c0.1,1.1,0.1,2.1,0.2,3.2c0.1,0.7,0.3,1.4,0.5,2.1c0.1,0.3,0.3,0.6,0.2,0.8
	c-0.7,1.8,0.1,3.5,0,5.3c-0.1,0.4-0.2,0.7-0.4,1.1c-0.2-0.3-0.6-0.5-0.6-0.9c-0.3-1.6-0.6-3.2-0.8-4.9c-0.1-1.1-0.2-2.3-0.3-3.4
	c0-0.3,0-0.6,0-1c0.1-1.4,0.2-2.7,0.3-4.1C11.5,51.4,11.6,51.4,12,50.9z"/>
<path class="st0" d="M132.2,136.2c0.7-0.6,1.5-1.3,2.1-2c0.9-1,2.2-1.8,2.6-3.3c0.1-0.5,0.8-0.9,1.4-1.3c0.1-0.1,0.9,0.5,0.9,0.8
	c0.3,2.6,0,2.8-2.5,3.8c-1,0.5-1.9,1-2.7,1.7c-0.5,0.3-1,0.5-1.4,0.7L132.2,136.2z"/>
<path class="st0" d="M66.9,159.2c-0.9,0.8-14.2,0.5-15.2-0.3C53.2,158.2,66,158.5,66.9,159.2z"/>
<path class="st0" d="M141.3,15c0.7,0,1.5,0.1,2.2,0.2c0.3,0.2,0.5,0.5,0.4,0.9c-0.4,1.3,0.3,2.4,0.7,3.5c0.3,0.8,0.9,1.5,1.2,2.3
	c0.1,0.6,0.1,1.2,0,1.8l-0.4,0.1c-0.4-0.4-1-0.8-1-1.3c-0.1-1.9-1.9-2.9-2.4-4.6c-0.3-0.8-0.7-1.6-1.1-2.4L141.3,15z"/>
<path class="st0" d="M157.9,131.2c-0.1,2-0.3,4-0.5,6c-0.1,0.7-0.2,1.4-0.5,2c-0.1,0.2-0.6,0.3-0.9,0.5c-0.1-0.3-0.3-0.6-0.3-0.9
	c0.2-2.3,0.5-4.6,0.8-6.9c0.1-0.7-0.2-1.5-0.2-2.2c0-0.3,0.4-0.7,0.6-1c0.3,0.3,0.5,0.6,0.6,0.9c0.1,0.5,0.1,1,0.1,1.5L157.9,131.2z
	"/>
<path class="st0" d="M124.3,6.6c3.5-0.5,7.1-0.1,10.4,1.1c0.2,0.1,0.5,0.5,0.4,0.6c-0.2,0.2-0.5,0.5-0.7,0.5
	c-0.9-0.1-1.7-0.2-2.6-0.4c-1.1-0.2-2.1-0.5-3.2-0.6c-0.9,0-1.8,0-2.8,0C125.1,7.9,124.4,7.4,124.3,6.6
	C124.3,6.6,124.3,6.6,124.3,6.6z"/>
<path class="st0" d="M16.6,27.4c0,0.3,0,0.6-0.1,0.9c-1.2,2.8-2.8,5.3-4.7,7.7c-0.1,0.1-0.1,0.2-0.2,0.3c-0.5,0.2-0.9,0.4-1.4,0.6
	c0.1-0.4,0.3-0.9,0.5-1.3c0.9-1.6,1.8-3.2,2.8-4.7c0.8-1.2,1.8-2.4,2.6-3.6L16.6,27.4z"/>
<path class="st0" d="M58.1,15.7c1.6-1.8,3.3-1.8,5.1-2c2-0.2,3.3,0.8,4.8,1.5v0.4c-0.4,0-0.9,0.2-1.2,0c-0.5-0.4-1.2-0.4-1.8,0
	c-0.3,0.1-0.6,0.2-0.9,0.1c-1.4,0-2.8,0-4.2,0.1L58.1,15.7z"/>
<path class="st0" d="M149,99c-0.3,1.2-0.6,2.6-1.1,4c-0.1,0.3-0.5,0.4-0.8,0.6c-0.2-0.3-0.5-0.6-0.5-0.9c0-0.6,0.1-1.2,0.2-1.7
	c0-0.3,0.3-0.7,0.1-0.9c-0.8-1.4,0.1-2.9-0.1-4.3c0-0.2,0.3-0.5,0.4-0.7c0.2,0.2,0.6,0.3,0.7,0.5C148.4,96.8,148.7,97.7,149,99z"/>
<path class="st0" d="M12.5,151.3c-1.5-4-0.6-8.1-0.8-12.5C12.6,139.8,13.2,150,12.5,151.3z"/>
<path class="st0" d="M28.4,36.9c-0.1-0.3-0.1-0.7-0.1-1c0.3-1.6,0.6-3.3,0.9-4.9c0.1-0.7,1.6-1.5,2.2-1.2c0.2,0.1,0.3,0.7,0.2,0.9
	c-0.6,1.6-1.3,3.2-2,4.8c-0.3,0.5-0.6,1-0.9,1.5L28.4,36.9z"/>
<path class="st0" d="M29.5,91.8c0.1,0.9,0.1,1.7,0.2,2.6c0,0.4,0.1,0.9,0.2,1.3c0.1,1.1,0.2,2.3,0.2,3.4c0,0.2-0.4,0.4-0.5,0.6
	c-0.2-0.2-0.4-0.4-0.6-0.7c-0.3-0.5-0.5-1.1-0.7-1.7c0-0.7,0-1.3,0.1-2c0-0.3,0.2-0.7,0.1-1c-0.3-0.9-0.1-1.9,0.5-2.6L29.5,91.8z"/>
<path class="st0" d="M157.1,98c-0.1-1.6-0.3-3-0.4-4.4c0-0.4,0.3-0.7,0.5-1.1c0.4,0.3,1,0.6,1.1,1c0.1,1-0.1,2.1-0.1,3.1
	c0,0.9,0.1,1.7,0.2,2.6c0,0.4,0,0.8-0.2,1.2c-0.2,0.2-0.6,0.4-0.9,0.3c-0.2,0-0.4-0.5-0.4-0.8C157,99.3,157.1,98.6,157.1,98z"/>
<path class="st0" d="M73.1,148.9c-0.3,0.1-0.7,0.2-1,0.2c-2.8-0.2-5.5-0.4-8.3-0.6c-0.3,0-0.6-0.4-0.9-0.6c0.3-0.1,0.7-0.4,1-0.4
	c1.7,0.2,3.4,0.4,5.1,0.5c1.1,0.1,2.2,0.1,3.3,0.2c0.3,0.1,0.5,0.2,0.8,0.4L73.1,148.9z"/>
<path class="st0" d="M109.2,36.2c2.2,0.8,4.6,0.9,6.3,2.8c0.3,0.6,0.6,1.2,0.7,1.8c-0.5-0.3-1.1-0.6-1.6-0.9c-1.1-0.7-2.2-1.4-3.3-2
	c-0.8-0.5-1.5-0.9-2.3-1.4L109.2,36.2z"/>
<path class="st0" d="M133.7,151.7c0.4,0,0.8-0.1,1.2-0.2c1.1-0.1,2.3-0.3,3.4-0.4c1.2-0.1,2.5-0.1,3.8-0.1c0.4,0,0.7,0.4,1.1,0.6
	l0,0.4c-0.8,0.1-1.5,0.1-2.3,0.2c-1.9,0.1-3.8,0.1-5.7,0.2c-0.5,0-1-0.1-1.5-0.3L133.7,151.7z"/>
<path class="st0" d="M24.1,32.4c-0.6,1.8-1.2,3.5-1.9,5.1c-0.1,0.3-0.8,0.3-1.2,0.5c0-0.4,0-0.8,0.1-1.1c0.6-1.5,1.3-3,2-4.4
	c0.1-0.2,0.4-0.4,0.6-0.6L24.1,32.4z"/>
<path class="st0" d="M130.7,148.7c1.1-1.3,2.5-1.3,3.7-1.5c1.2-0.2,2.4-0.3,3.7-0.4c0.3,0,0.6,0.3,0.9,0.4c-0.3,0.2-0.5,0.5-0.9,0.6
	c-2.1,0.4-4.2,0.8-6.3,1.1C131.4,148.9,131,148.8,130.7,148.7z"/>
<path class="st0" d="M139.1,40.3c0,0.1-0.2,0.4-0.4,0.5c-0.3,0-0.6-0.2-0.7-0.4c-0.4-1.6-0.8-3.1-1.2-4.7c0-0.2,0.2-0.5,0.2-0.7
	c0.2,0.1,0.6,0.1,0.7,0.3C138.6,36.7,139,38.5,139.1,40.3z"/>
<path class="st0" d="M130.9,29.4c-1.9-1.1-1.5-3.5-3-4.7l0.1-0.4c0.6,0,1.3,0,1.9,0c0.2,0,0.6,0.3,0.5,0.5c-0.1,0.8,0,1.7,0.4,2.4
	C130.9,27.9,131,28.7,130.9,29.4z"/>
<path class="st0" d="M144.7,10.3c0.6,0.1,1.2,0.1,1.5,0.4c0.7,0.6,1.3,1.3,1.9,2.1c0.6,0.6,0.4,1.4-0.5,1.4c-0.6,0-1.3-0.2-1.7-0.7
	C145.5,12.5,145,11.4,144.7,10.3z"/>
<path class="st0" d="M54.5,29.6c-0.4-0.3-0.8-0.4-0.9-0.6c-0.1-0.3,0-0.6,0.2-0.8c1.3-1,2.7-1.9,4.1-2.7c0.2-0.1,0.5,0,0.8,0
	c-0.1,0.3-0.1,0.6-0.2,0.8s-0.6,0.3-0.9,0.5c-0.6,0.5-1.1,1-1.7,1.5L54.5,29.6z"/>
<path class="st0" d="M25,141.9c-0.5-0.7-0.9-1.1-1-1.6c-0.2-0.9,0-1.8-0.9-2.4c-0.1-0.1-0.1-0.5-0.1-0.8c0.3,0,0.9-0.1,1,0
	c0.8,1.2,1.5,2.5,2.2,3.7C26.2,140.9,25.6,141.3,25,141.9z"/>
<path class="st0" d="M22.9,9.7c0.4-0.2,0.9-0.4,1.4-0.5c1.5-0.1,3.1-0.1,4.7,0c0.3,0,0.6,0.3,1,0.4c-0.3,0.2-0.6,0.4-1,0.5
	c-1.1,0.1-2.2,0.1-3.3,0.2c-0.9,0-1.7,0-2.6,0L22.9,9.7z"/>
<path class="st0" d="M27.1,148.2c-0.5-0.4-0.9-0.9-1.3-1.4c-0.2-0.5-0.3-1-0.3-1.5c0-0.2,0-0.6,0.2-0.7s0.7-0.2,0.9,0
	c0.6,0.7,1.2,1.5,1.6,2.3C28.1,147.1,27.5,147.6,27.1,148.2z"/>
<path class="st0" d="M54.9,150.7c-1.9,0.8-5.7,0.4-6.3-1l6.3,0.6L54.9,150.7z"/>
<path class="st0" d="M138.8,64.9c-0.2-0.9-0.5-1.8-0.7-2.7c-0.2-0.7-0.3-1.5-0.4-2.2c0.1-0.5,0.3-0.9,0.5-1.4
	c0.3,0.4,0.5,0.8,0.6,1.2c0.2,1.4,0.4,2.8,0.6,4.2c0,0.3-0.1,0.5-0.1,0.8L138.8,64.9z"/>
<path class="st0" d="M147.9,68.9c0,0.3,0,0.6,0,0.8c-0.1,0.3-0.3,0.5-0.5,0.7c-0.3-0.2-0.6-0.3-0.8-0.6c-0.3-0.5-0.5-1-0.6-1.5
	c-0.1-0.4-0.1-0.8,0.1-1.2c0.3-0.2,0.6-0.3,1-0.3c0.3,0.2,0.6,0.6,0.7,1C147.9,68.2,148,68.6,147.9,68.9L147.9,68.9z"/>
<path class="st0" d="M18,155.6c-0.5-0.1-1-0.2-1.5-0.4c-0.3-0.2-0.8-0.7-0.8-0.8c0.1-0.5,0.5-0.9,0.9-1.2c0.3-0.1,0.8,0.2,1.2,0.4
	c0.2,0.2,0.4,0.4,0.6,0.7c0.2,0.3,0.3,0.6,0.5,0.8L18,155.6z"/>
<path class="st0" d="M40.1,27.2c-0.5,0.2-0.9,0.5-1.3,0.7c-1,0.4-1.9,0.9-2.9,1.2c-0.4,0-0.8,0-1.1-0.1c0.2-0.3,0.3-0.7,0.6-0.8
	c1-0.5,2.1-1,3.1-1.4c0.5-0.1,1-0.1,1.5-0.1L40.1,27.2z"/>
<path class="st0" d="M155.6,49.9c-0.1,0.3-0.3,0.5-0.5,0.7c-0.3,0.1-0.6,0.1-0.8-0.1c-0.3-0.3-0.5-0.7-0.6-1.1
	c-0.1-0.4-0.1-0.8,0-1.2c0-0.3,0.2-0.7,0.3-0.7c0.3,0,0.8,0.1,0.9,0.3C155.2,48.4,155.4,49.1,155.6,49.9z"/>
<path class="st0" d="M16.1,11.7c-1,1.2-3.6,2.6-4.5,2.3C12.3,12.2,14.2,11.2,16.1,11.7z"/>
<path class="st0" d="M149.2,131.7c0.1,0.3,0.2,0.6,0.3,0.9c0.3,0.7,0.1,1.3-0.7,1.5c-0.4,0-0.8,0-1.2,0c0.1-0.4,0.1-0.8,0.2-1.1
	c0.1-0.5,0.3-0.9,0.5-1.4c0.2-0.3,0.4-0.6,0.6-0.8l0.7,0.7L149.2,131.7z"/>
<path class="st0" d="M158.9,143.8c0.5,0,1,0.2,0.4,1.1c-0.3,0.5-0.5,1.2-0.8,1.7c-0.1,0.2-0.5,0.2-0.8,0.2c-0.1-0.3-0.2-0.6-0.2-0.9
	c0.1-0.4,0.1-0.8,0.1-1.1C157.5,143.9,158,143.8,158.9,143.8z"/>
<path class="st0" d="M45.8,141.9c-0.2,0.2-0.6,0.6-1.1,0.7c-0.6,0.2-1.1-0.2-1.3-0.7c0-0.2,0-0.3,0-0.5c0-0.3,0.7-0.8,1.1-0.8
	C45.1,140.5,45.9,140.5,45.8,141.9z"/>
<path class="st0" d="M114.1,156.3c-0.9,1.2-3.4,1.8-4.2,1.2c-0.2-0.1-0.3-0.3-0.3-0.6c0-0.1,0.2-0.3,0.4-0.4
	C111.2,156.5,112.4,156.4,114.1,156.3z"/>
<path class="st0" d="M120.7,132l3.9-3c-0.1,1.8-1.6,3.1-3.3,3.1C121.1,132.1,120.9,132,120.7,132z"/>
<path class="st0" d="M24.7,16.6c-0.9,0.8-2.1,1.3-3.4,1.3c-0.2,0-0.5-0.4-0.8-0.6c0.2-0.2,0.4-0.6,0.7-0.6
	C22.3,16.2,23.5,16.2,24.7,16.6z"/>
<path class="st0" d="M125.5,27.8c0.9,0,1.7,0.7,1.8,1.6c0,0.1-0.6,0.6-0.8,0.5c-0.8-0.4-1.5-0.9-2.2-1.4L125.5,27.8z"/>
<path class="st0" d="M149.3,137.3c0.3-0.4,0.6-0.7,0.9-1c0.6-0.5,1.3-0.9,2-1.3c0.2-0.1,0.6,0,0.9,0c0,0.3,0,0.8-0.1,0.8
	c-1,0.6-2,1.1-3,1.6C149.9,137.6,149.7,137.5,149.3,137.3z"/>
<path class="st0" d="M23,152.7c-0.4-0.7-0.6-1-0.7-1.3c-0.1-0.9,0.4-1.4,1.2-1.2c0.4,0.1,0.7,0.6,1.1,0.9L23,152.7z"/>
<path class="st0" d="M26.5,158.8c-2,0.6-3.5-0.7-5.1-0.7C22.3,157.3,25.3,157.7,26.5,158.8z"/>
<path class="st0" d="M101.1,34.4c-0.4,0.1-0.7,0.1-1.1,0.1c-0.8,0-1.6,0-2.4-0.1c-0.3-0.1-0.6-0.2-0.9-0.4c0.3-0.2,0.5-0.6,0.8-0.7
	c0.4-0.1,0.8-0.1,1.2,0.1c0.8,0.2,1.6,0.5,2.4,0.7L101.1,34.4z"/>
<path class="st0" d="M102.9,5.9h5.5C107.1,6.9,103.6,6.8,102.9,5.9z"/>
<path class="st0" d="M43.3,8.4L38,8.8c0.7-1.1,3.8-1.3,5.2-0.7L43.3,8.4z"/>
<path class="st0" d="M155.4,150.2c0.3-1.8,0.5-2,2.1-2.4c0.3,1-0.4,2.1-1.4,2.3C155.9,150.2,155.7,150.3,155.4,150.2z"/>
<path class="st0" d="M150.5,140.9c0.4-0.2,0.8-0.5,1.2-0.7c0.4-0.1,0.7-0.1,1.1-0.2c0.1,0.4,0.1,0.8,0,1.2c-0.2,0.3-0.5,0.6-0.8,0.6
	c-0.6-0.1-1.1-0.3-1.6-0.6L150.5,140.9z"/>
<path class="st0" d="M22.5,145.5c0.4,0.3,0.8,0.7,1.1,1.1c0.2,0.2,0.3,0.7,0.2,0.8c-0.2,0.3-0.5,0.5-0.9,0.5c-0.3,0-0.8-0.3-0.8-0.5
	c-0.1-0.6-0.1-1.3,0-1.9L22.5,145.5z"/>
<path class="st0" d="M36.2,32.5c-0.3,1.1-1.9,2.2-2.5,2c-0.3-0.1-0.5-0.3-0.6-0.5c0-0.2,0-0.5,0.2-0.6
	C34.2,33.1,35.1,32.9,36.2,32.5z"/>
<path class="st0" d="M148.4,108.8c-0.2,1.2-0.3,2.3-0.5,3.3c-0.1,0.3-0.4,0.4-0.7,0.4c-0.2-0.1-0.5-0.5-0.5-0.7
	c0.3-0.9,0.6-1.8,1.1-2.7C147.8,108.9,148.2,108.9,148.4,108.8z"/>
<path class="st0" d="M130.1,37.7c0.3,1.1,0.7,2.2,1,3.2C129.7,41,129.1,39.4,130.1,37.7z"/>
<path class="st0" d="M145,151.5c1.1-0.5,1.8-0.9,2.6-1.2c0.2-0.1,0.6,0.1,0.7,0.3s0,0.7-0.2,0.8C147.1,152,145.9,152,145,151.5z"/>
<path class="st0" d="M77.1,158.2c0.7-0.3,1.4-0.5,2.1-0.7c0.2,0,0.5,0.3,0.7,0.4c-0.2,0.2-0.3,0.6-0.5,0.7c-0.7,0.2-1.4,0.2-2.1,0.3
	L77.1,158.2z"/>
<path class="st0" d="M22.9,23.3c0-0.5,0.2-1,0.3-1.4c0.3-0.4,0.6-0.7,1-1c0.1-0.1,0.6,0.2,0.6,0.2c-0.1,0.5-0.2,0.9-0.5,1.4
	C23.9,22.8,23.4,23.1,22.9,23.3z"/>
<path class="st0" d="M139.2,41.9c0.4,0.4,0.8,0.9,1.1,1.3c0.1,0.2,0.1,0.5,0,0.7c-0.2,0.2-0.6,0.4-0.9,0.4c-0.2,0-0.5-0.3-0.5-0.5
	c0-0.6,0-1.2,0-1.8L139.2,41.9z"/>
<path class="st0" d="M9.4,30c0.5-0.6,0.9-1.2,1.4-1.7c0.1-0.1,0.7,0.2,0.7,0.4C11.6,29.4,10.4,30.3,9.4,30z"/>
<path class="st0" d="M163.1,122.5c0,1,0,2,0,2.9c0,0.1-0.2,0.3-0.4,0.3s-0.4-0.2-0.4-0.3c0-1,0.1-2,0.2-3L163.1,122.5z"/>
<path class="st0" d="M12.1,138c-1.2-0.8-0.7-1.8-0.4-2.7C12.8,135.7,12.9,136.5,12.1,138z"/>
<path class="st0" d="M137.1,139c0.6-0.6,1-1.2,1.6-1.6c0.2-0.2,0.5-0.2,0.7-0.1c0.2,0.1,0.2,0.3,0.2,0.5
	C139.5,138.5,138.2,139.2,137.1,139z"/>
<path class="st0" d="M123.4,45.2c-0.5-0.4-1-0.8-1.5-1.2c-0.1-0.1-0.1-0.5-0.2-0.7c0.3,0,0.7-0.2,0.9,0c0.4,0.5,0.8,1,1.2,1.6
	L123.4,45.2z"/>
<path class="st0" d="M34.5,57.5l-1.2,2.1l-0.4-0.1c0-0.6,0.1-1.2,0.3-1.8c0.1-0.3,0.7-0.4,1.1-0.5L34.5,57.5z"/>
<path class="st0" d="M42.2,149.8h3.5C45,150.7,43.6,150.7,42.2,149.8z"/>
<path class="st0" d="M59.9,148.1l-2.8-0.3C58.1,146.7,59.1,146.8,59.9,148.1z"/>
<path class="st0" d="M20.2,21.5c0.1,0.9-0.6,1.4-1.2,2c-0.2,0.1-0.4,0-0.5-0.1c-0.1-0.2-0.1-0.4-0.1-0.5c0.4-0.6,0.9-1.1,1.4-1.7
	L20.2,21.5z"/>
<path class="st0" d="M147.5,26.6l1.1,1.4c-0.2,0.2-0.5,0.5-0.7,0.4c-0.9-0.1-0.9-0.8-0.9-1.4L147.5,26.6z"/>
<path class="st0" d="M39.5,13.6c0.4-1.3,1.1-1.5,2.4-0.8L39.5,13.6z"/>
<path class="st0" d="M148.1,73.9c-0.3-0.5-0.7-1-0.9-1.6c-0.1-0.2,0.1-0.5,0.2-0.8c0.2,0.1,0.6,0.2,0.6,0.4c0.2,0.6,0.3,1.3,0.4,1.9
	L148.1,73.9z"/>
<path class="st0" d="M30.9,9.2l2.4-0.1C32.5,10.1,31.9,10.2,30.9,9.2z"/>
<path class="st0" d="M92.4,25.6h2.2v0.5h-2.2V25.6z"/>
<path class="st0" d="M20.5,40.5l-0.6-0.7c0.3-0.3,0.7-0.6,1.1-0.9c0.1,0,0.4,0.3,0.6,0.4L20.5,40.5z"/>
<path class="st0" d="M25.3,30.5c-0.5,0.3-0.7,0.6-1,0.6s-0.6-0.3-0.9-0.4c0.3-0.3,0.6-0.5,0.9-0.8C24.6,29.9,24.9,30.2,25.3,30.5z"
	/>
<path class="st0" d="M132.1,18.4c-0.3-0.4-0.6-0.7-0.5-0.9s0.4-0.5,0.6-0.7c0.2,0.3,0.6,0.5,0.6,0.8S132.4,18,132.1,18.4z"/>
<path class="st0" d="M19.2,17.4c-0.6,0.3-0.9,0.6-1.2,0.6s-0.4-0.4-0.6-0.6c0.3-0.2,0.6-0.4,0.9-0.5C18.4,16.8,18.7,17.1,19.2,17.4z
	"/>
<path class="st0" d="M104.4,20l2.6-0.3v0.5h-2.6L104.4,20z"/>
<path class="st0" d="M131.8,31l-1-0.8c0.1-0.2,0.4-0.5,0.4-0.5c0.4,0.2,0.7,0.5,1.1,0.7L131.8,31z"/>
<path d="M38.9,82.3c0.6-0.8,0.8-1.9,0.6-2.8c-0.1-1.5,0.3-2.9,1-4.2c0.7-1.5,1.2-3,1.6-4.6c0-0.9,0-1.8-0.1-2.7
	c0.1-0.6,0.3-1.1,0.6-1.5c0.9-1.3,2-2.6,2.9-3.9c0.8-1.1,1.6-2.2,2.1-3.5c0.7-1.8,2.2-2.6,3.6-3.5c1.3-0.9,2.6-1.9,3.7-3
	c0.6-0.5,1.4-0.9,2.1-1.2c0.6-0.3,1.3-0.5,1.9-0.8c2.1-1,4-2.4,6.2-2.9c3.9-0.9,7.7-2.7,11.8-2.7c1.1-0.2,2.2-0.4,3.3-0.7
	c1.1-0.1,2.1-0.2,3.2-0.1c0.5,0,0.9,0.3,1.4,0.3c0.3,0,0.7-0.1,1-0.3c1.2,0.2,2.6,0.5,4,0.5s2.8-0.1,4.2,0.6c1.8,1,3.6,1.8,5.4,2.6
	c0.7,0.3,1.3,0.5,2,0.7c0.2,0.1,0.5,0,0.6,0.2c1.6,1.8,4.3,1.6,6.1,3.1c0.6,0.5,1.1,1,1.7,1.5c0.5,0.5,1,1,1.6,1.4
	c1.8,1,3,2.6,5,3.3c0.9,0.3,1.4,1.7,2.1,2.5c1,1.1,0.9,2.7,2.2,3.6c0.5,0.3,0.5,1.2,0.8,1.8c0.2,0.4,0.4,0.8,0.6,1.1
	c0.2,0.5,0.4,1.1,0.8,1.6c1.2,1.5,0.2,3.9,2.1,5.2c0.2,0.2,0.4,0.5,0.4,0.8c0.2,1.1,0.4,2.2,0.6,3.3c0,0.2,0.2,0.5,0.3,0.6
	c1.1,1.3,1.1,2.9,1.2,4.5c0.1,2,0.2,4,0.2,6c-0.1,0.8-0.2,1.7-0.5,2.5c-0.1,0.3-0.3,0.5-0.3,0.8c0,1,0.1,2-0.1,3.1
	c-0.1,0.6-0.4,1.3-0.7,1.8c-0.1,0.2-0.3,0.4-0.4,0.6c-0.1,2.2-1.4,4-2.1,6c-0.9,2.8-2.8,5-4.1,7.5c-1.4,2.6-3.3,4.9-5.4,6.9
	c-2.4,2.1-5.4,3.5-8.1,5.2c-1.2,0.8-2.5,1.6-4,1.5c-0.3,0-0.6,0.2-0.9,0.4c-1.7,1-3.4,1.8-5.2,2.5c-5,1.4-10.1,2.3-15.3,1.1
	c-1.5-0.3-3-0.5-4.5-0.8c-2.3-0.3-4.5-0.7-6.8-1.3c-1.9-0.7-3.7-1.6-5.4-2.7c-1.9-1.2-3.4-2.8-5.3-4.1c-2.1-1.5-4-3.3-5.6-5.3
	c-0.1-0.1-0.3-0.4-0.4-0.3c-1.5,0.5-2-0.6-2.6-1.6c-0.8-1.4-1.8-2.7-2.6-4.1c-1.1-1.9-1.9-4-3.1-5.8c-1.3-2.1-1.5-4.6-2.6-6.7
	c-0.8-1.8-1.2-3.7-1.2-5.6c-0.1-1.4-0.5-2.8-0.7-4.2c-0.1-0.6,0-1.2,0-1.8C39.4,84,39.2,83.3,38.9,82.3z M88,102.7
	c2-0.4,10.9-13.9,11.9-17.8c-1.1-0.1-1.5,0.9-1.9,1.5c-1.1,1.7-2.2,3.5-3.3,5.2s-2.1,3-3.1,4.6c-1.1,1.8-2.2,3.7-3.2,5.6
	C88.2,102,88.1,102.3,88,102.7L88,102.7z M63,85.1c0,1.8,0,3.2,0,4.7c0,2-0.1,4.1-0.1,6.2c0,0.7,0.4,1,1.1,0.7
	c1.3-0.6,1.9-2.1,1.3-3.4c-0.1-0.2-0.2-0.3-0.3-0.5c-0.7-0.8-0.7-2.1,0.1-2.9c0.2-0.4,0.4-0.9,0.4-1.4c0.1-0.5,0.1-1,0.3-1.4
	c0.3-0.8,0.1-1.5-0.7-1.7C64.5,85.3,63.8,85.2,63,85.1L63,85.1z M52,93.8h-0.4l0.5,1.1c0.4-0.3,0.8-0.6,1.2-1
	c0.1-0.1,0.1-0.4,0.2-0.6c1-3.3,2.1-6.7,3.1-10c0.1-0.3,0.2-0.6,0.2-0.9c-0.1-0.6-0.2-1.2-0.3-1.8c-0.4,0.4-0.8,0.9-1.1,1.4
	c-1,2.5-1.8,5-2.7,7.5C52.1,90.9,50.7,92,52,93.8L52,93.8z M84.1,69.6l-0.1-0.4c-0.3,0-0.7-0.1-0.9,0c-1.1,0.5-2.2,1.1-3.3,1.7
	c-2.6,1.5-5.3,3.1-7.9,4.7c-0.7,0.5-1.5,1.1-2.1,1.7l0.2,0.3C75,75.6,79.7,72.9,84.1,69.6z M75.1,61.7l-0.1-0.5
	c-0.4,0-0.8,0-1.2,0.1c-2.9,1.3-5.8,2.5-8.5,3.9C64,66,63,66.9,62.1,68c-0.2,0.2,0,0.7,0,1.1c0.4-0.1,0.7-0.1,1.1-0.2
	c0.1,0,0.2-0.2,0.4-0.3c2.4-2.4,5.2-4.2,8.3-5.4C72.9,62.7,73.9,62.2,75.1,61.7z M99.1,93.8c1,0.1,1.8-0.5,2.2-1.4
	c0.5-0.9,1.1-1.8,1.8-2.6c0.1-0.3,0.3-0.5,0.4-0.8c0.1-0.3,0.3-0.6,0.5-1c1.1-1.6,2.2-3.2,3.3-4.8c0.2-0.2,0-0.7,0-1.1
	c-0.4,0.1-0.9,0.1-1.1,0.4c-0.8,1-1.6,2.1-2.3,3.1c-1.5,2.5-3,4.9-4.6,7.4C99.2,93.3,99.1,93.6,99.1,93.8z M86.5,83.2l-0.1-0.5
	c-0.5-0.1-1-0.1-1.5,0c-3,1.3-6,2.8-9.1,4.2v0.5c0.6,0.1,1.3,0.5,1.7,0.3c2.3-0.9,4.5-1.9,6.8-3C85,84.2,85.8,83.7,86.5,83.2
	L86.5,83.2z M88.1,52.5L88,52.7c0.4,0.2,0.7,0.4,1.1,0.5c2,0.5,4,0.8,6.1,0.9c1.3,0,2.7,0.4,3.9,1c0.4,0.2,1,0,1.6,0
	c-0.3-0.5-0.6-0.9-1-1.3c-0.1-0.1-0.4-0.1-0.7-0.2c-2-0.2-4-0.5-6-0.7C91.3,52.6,89.7,52.6,88.1,52.5z M120.1,100.3l-0.8-0.9
	c-0.3,0.3-0.6,0.7-0.8,1.1c-0.3,0.9-0.5,1.9-0.8,2.9c-0.2,0.6-0.4,1.2-0.6,1.8c0,0.4,0.4,0.8,0.6,1.2c0.3-0.2,0.8-0.3,0.9-0.6
	C119.2,104,119.6,102.3,120.1,100.3z M71.7,98.6L71.7,98.6c0,0.5,0,1,0,1.4c0.1,0.4,0.3,0.9,0.5,0.9c0.4,0,0.8-0.2,1-0.5
	c0.8-0.8,1-2,0.4-3c-0.1-0.2-0.1-0.6-0.2-0.9c-0.2-0.4-0.4-0.8-0.6-1.2c-0.4,0.4-0.9,0.7-1,1.1C71.8,97.2,71.7,97.9,71.7,98.6z
	 M95.8,83c-1.1,0-2,0.7-2.4,1.7c-0.8,1.4-1.6,2.8-2.3,4.3c-0.2,0.3-0.2,0.7-0.1,1c0,0.1,0.5,0.3,0.7,0.2c0.3-0.2,0.5-0.4,0.7-0.7
	c0.5-1,0.9-1.9,1.4-2.9C94.4,85.4,95.1,84.3,95.8,83L95.8,83z M83.1,99.1c-0.3-0.6-0.5-1.4-0.9-1.5c-0.8-0.2-1.1,0.5-1.3,1.2
	s-0.5,1.2-0.6,1.8c-0.1,0.4-0.1,0.8,0,1.3c0.1,0.3,0.4,0.5,0.7,0.6c0.3,0,0.6-0.2,0.8-0.5C82.3,101.2,82.7,100.2,83.1,99.1z
	 M61.5,101.1c-0.1-2-0.2-3.8-0.4-5.5c0-0.2-0.3-0.5-0.5-0.7c-0.2,0.2-0.6,0.5-0.7,0.7C59.7,97.6,59.6,99.5,61.5,101.1L61.5,101.1z
	 M89.7,114c0.4-0.1,0.7-0.1,0.8-0.2c0.8-0.8,1.5-1.6,2.2-2.5c0.1-0.2,0.1-0.4,0-0.6c-0.3-0.1-0.6-0.1-0.8,0
	c-0.8,0.5-1.7,1.1-2.5,1.7c-0.3,0.3-0.5,0.6-0.7,0.9L89.7,114z M64.1,103.4l-0.3,0.2l0.7,1.2c0.3-0.2,1-0.4,1-0.6c0.1-1,0-2-0.2-2.9
	c-0.1-0.3-0.8-0.4-1.3-0.6c-0.1,0.4-0.2,0.7-0.2,1.1C63.8,102.3,63.9,102.8,64.1,103.4z M112.3,106.6l0.5,1.2
	c0.4-0.3,0.7-0.6,1.1-0.9c0.5-0.7,0.9-1.4,1.3-2.1c0.2-0.3,0.3-0.6,0.4-0.9c0-0.1-0.4-0.5-0.6-0.4c-0.3,0.1-0.6,0.3-0.9,0.6
	c-0.3,0.4-0.6,0.8-0.9,1.2C112.9,105.6,112.6,106.1,112.3,106.6z M63.5,56.7c-1.8-0.2-5,1.5-5.4,2.9C59.3,59.7,63,57.8,63.5,56.7
	L63.5,56.7z M111.9,84.6c1,0.1,1.6,0.2,2.3,0.2c0.3,0,0.6-0.1,0.8-0.3c0.1-0.1-0.1-0.5-0.2-0.7c-0.1-0.3-0.2-0.6-0.3-0.9
	c-0.1-0.3-0.3-0.7-0.5-0.8s-0.9,0-1.1,0.2C112.5,83.1,112.2,83.8,111.9,84.6z M71.5,54.9c-1.2,0.1-2.4,0.4-3.6,0.7
	c-0.5,0.1-0.8,0.8-1.3,1.4C69.2,57,71.2,56.1,71.5,54.9L71.5,54.9z M81.2,56L81,56.4c1.8,2.5,3.7,3.2,4.6,1.8L81.2,56z M94.9,103.4
	c1.9,0.4,2.8-0.1,3.3-1.4c0.2-0.5,0.1-1.3-0.5-1C96.7,101.7,95.7,102.5,94.9,103.4L94.9,103.4z M53.5,77.3c0.4-0.2,0.6-0.3,0.7-0.5
	c0.4-0.7,0.7-1.4,0.9-2.1c0.1-0.2-0.4-0.8-0.7-0.9s-0.8,0.3-0.9,0.6c-0.2,0.6-0.4,1.2-0.4,1.8C53,76.5,53.3,76.9,53.5,77.3
	L53.5,77.3z M57.7,67.9c-1.5-0.6-2.5-0.1-2.8,1.2c0,0.3,0,0.7,0.1,1c0.4-0.1,0.8-0.1,1-0.4C56.6,69.2,57.1,68.5,57.7,67.9L57.7,67.9
	z M53.3,110.6c0.6-1.6,0-2.7-1-2.6c-0.2,0-0.7,0.6-0.6,0.7C52.2,109.3,52.8,109.9,53.3,110.6z M96.8,67.5c0.9-0.2,1.8,0.1,2.1-1
	c0-0.1-0.6-0.6-0.9-0.6C97,65.7,96.8,66.5,96.8,67.5L96.8,67.5z M59.5,54.3c-1-0.6-2.3-0.2-2.9,0.8c-0.1,0.2-0.2,0.5-0.3,0.8
	L59.5,54.3z M100.6,70l1.2-1.4c-0.2-0.1-0.5-0.5-0.6-0.4c-0.5,0.2-1,0.5-1.5,0.8L100.6,70z M100,122.7l1.4-1c-0.3-0.2-0.7-0.6-1-0.5
	c-0.5,0.1-1,0.4-1.4,0.6L100,122.7z M52.1,103.8l-1.7-1.4c-0.1,0.4-0.3,0.9-0.2,1.2C50.5,104.3,51.1,104.5,52.1,103.8z M96.6,72.8
	l-0.1-0.6l-3,0.6l0.1,0.5C94.7,73.9,95.6,72.8,96.6,72.8L96.6,72.8z M89.9,69.6c0.3,0,0.5,0.1,0.6,0c0.4-0.4,0.9-0.8,1.3-1.3
	c-0.1-0.2-0.2-0.3-0.4-0.4c-0.5,0.3-0.9,0.6-1.3,1C89.9,68.9,90,69.2,89.9,69.6z M62.8,52.5l-0.1-0.4c-0.6,0.1-1.3,0.3-1.9,0.5
	c-0.2,0.1-0.3,0.4-0.5,0.7c0.3,0.1,0.6,0.3,0.8,0.2C61.7,53.2,62.2,52.8,62.8,52.5L62.8,52.5z M86.4,90.3l0.7,0.2l0.5-1.5
	c-0.2,0-0.6-0.1-0.6-0.1C86.8,89.3,86.6,89.8,86.4,90.3L86.4,90.3z M79.1,54.8v-0.5H77v0.3L79.1,54.8z M93.1,116.9l-0.1-0.7
	l-1.7,0.4l0.1,0.6L93.1,116.9z M82.3,108.2l0.6-0.4l0.7-0.6c-0.3-0.2-0.5-0.5-0.8-0.5s-0.8,0.2-0.8,0.4
	C82,107.5,82.1,107.8,82.3,108.2L82.3,108.2z"/>
<path class="st0" d="M88,102.7c0.1-0.3,0.2-0.7,0.4-1c1.1-1.9,2.1-3.7,3.2-5.6c1-1.6,2.1-3,3.1-4.6s2.1-3.5,3.3-5.2
	c0.4-0.6,0.8-1.6,1.9-1.5C98.8,88.7,90,102.3,88,102.7z"/>
<path class="st0" d="M63.1,85.1c0.7,0.1,1.4,0.2,2.1,0.3c0.9,0.3,1,0.9,0.7,1.7c-0.1,0.5-0.2,0.9-0.3,1.4c0,0.5-0.2,1-0.4,1.4
	c-0.8,0.8-0.8,2.1-0.1,2.9c0.8,1.2,0.5,2.8-0.6,3.6c-0.1,0.1-0.3,0.2-0.5,0.3c-0.7,0.3-1.1,0-1.1-0.7c0-2,0.1-4.1,0.1-6.2
	C63.1,88.4,63.1,86.9,63.1,85.1z"/>
<path class="st0" d="M52,93.8c-1.3-1.8,0.1-2.9,0.7-4.3c1-2.5,1.8-5,2.7-7.5c0.3-0.5,0.6-1,1.1-1.4c0.1,0.6,0.2,1.2,0.3,1.8
	c0,0.3-0.1,0.6-0.2,0.9c-1,3.3-2,6.7-3.1,10c-0.1,0.2,0,0.5-0.2,0.6c-0.4,0.4-0.8,0.7-1.2,1l-0.5-1.1L52,93.8z"/>
<path class="st0" d="M84.1,69.6c-4.3,3.2-9.1,5.9-14.1,8l-0.2-0.3c0.7-0.6,1.4-1.2,2.1-1.7c2.6-1.6,5.2-3.2,7.9-4.7
	c1.1-0.6,2.2-1.2,3.3-1.7c0.2-0.1,0.6,0,0.9,0L84.1,69.6z"/>
<path class="st0" d="M75.1,61.7c-1.1,0.5-2.1,1-3.2,1.5c-3.1,1.2-6,3-8.3,5.4c-0.1,0.1-0.2,0.3-0.4,0.3c-0.3,0.1-0.7,0.2-1.1,0.2
	c0-0.4-0.1-0.9,0-1.1c0.9-1.1,1.9-2,3.1-2.8c2.8-1.5,5.7-2.6,8.5-3.9c0.4-0.1,0.8-0.2,1.2-0.1L75.1,61.7z"/>
<path class="st0" d="M99.1,93.8c0-0.2,0.1-0.5,0.2-0.7c1.5-2.5,3-4.9,4.6-7.4c0.7-1.1,1.5-2.1,2.3-3.1c0.2-0.3,0.7-0.3,1.1-0.4
	c0,0.4,0.2,0.8,0,1.1c-1.1,1.6-2.2,3.2-3.3,4.8c-0.2,0.3-0.4,0.6-0.5,1c-0.1,0.3-0.2,0.5-0.4,0.8c-0.6,0.8-1.2,1.7-1.7,2.6
	C100.9,93.3,100,93.8,99.1,93.8z"/>
<path class="st0" d="M86.5,83.2c-0.7,0.6-1.5,1.1-2.3,1.5c-2.2,1-4.5,2-6.8,3c-0.5,0.2-1.1-0.2-1.7-0.3v-0.5c3-1.4,6-2.8,9.1-4.2
	c0.5-0.1,1-0.1,1.5,0L86.5,83.2z"/>
<path class="st0" d="M88.1,52.5c1.6,0.1,3.3,0.1,4.9,0.3c2,0.2,4,0.5,6,0.7c0.2,0,0.5,0,0.7,0.2c0.4,0.4,0.7,0.9,1,1.3
	c-0.5,0-1.2,0.2-1.6,0c-1.2-0.6-2.5-1-3.9-1c-2-0.2-4.1-0.5-6.1-0.9c-0.4-0.1-0.8-0.3-1.1-0.5L88.1,52.5z"/>
<path class="st0" d="M120.1,100.3c-0.5,2-0.9,3.7-1.4,5.4c-0.1,0.3-0.6,0.4-0.9,0.6c-0.2-0.4-0.6-0.8-0.6-1.2
	c0.1-0.6,0.3-1.2,0.6-1.8c0.3-1,0.5-1.9,0.8-2.9c0.2-0.4,0.5-0.8,0.8-1.1L120.1,100.3z"/>
<path class="st0" d="M71.7,98.6c0-0.7,0-1.4,0.2-2.1c0.1-0.4,0.6-0.7,1-1.1c0.2,0.4,0.4,0.8,0.6,1.2c0.1,0.3,0,0.6,0.2,0.9
	c0.6,1,0.4,2.2-0.4,3c-0.2,0.3-0.6,0.5-1,0.5c-0.2,0-0.5-0.6-0.5-0.9C71.7,99.6,71.7,99.1,71.7,98.6L71.7,98.6z"/>
<path class="st0" d="M95.8,83c-0.8,1.4-1.4,2.5-2,3.6c-0.5,1-0.9,1.9-1.4,2.9c-0.2,0.3-0.4,0.5-0.7,0.7c-0.2,0.1-0.7-0.1-0.7-0.2
	c-0.1-0.3,0-0.7,0.1-1c0.8-1.4,1.6-2.8,2.3-4.3C93.8,83.7,94.8,83,95.8,83z"/>
<path class="st0" d="M83.1,99.1c-0.4,1-0.8,2-1.2,3c-0.2,0.3-0.5,0.5-0.8,0.5c-0.3-0.1-0.6-0.3-0.7-0.6c-0.1-0.4-0.1-0.8,0-1.3
	c0.1-0.6,0.5-1.2,0.6-1.8s0.5-1.5,1.3-1.2C82.6,97.7,82.8,98.6,83.1,99.1z"/>
<path class="st0" d="M61.5,101.1c-1.9-1.7-1.8-3.6-1.6-5.5c0-0.3,0.5-0.5,0.7-0.7c0.2,0.2,0.5,0.5,0.5,0.7
	C61.3,97.4,61.4,99.1,61.5,101.1z"/>
<path class="st0" d="M89.7,114l-1-0.8c0.2-0.3,0.4-0.6,0.7-0.9c0.8-0.6,1.6-1.2,2.5-1.7c0.3-0.1,0.6-0.1,0.8,0
	c0.1,0.2,0.1,0.4,0,0.6c-0.7,0.9-1.4,1.7-2.2,2.5C90.4,113.9,90.1,113.9,89.7,114z"/>
<path class="st0" d="M64.1,103.4c-0.1-0.5-0.2-1.1-0.3-1.6c0-0.4,0.1-0.8,0.2-1.1c0.4,0.2,1.2,0.3,1.3,0.6c0.2,1,0.3,1.9,0.2,2.9
	c0,0.2-0.6,0.4-1,0.6l-0.7-1.2L64.1,103.4z"/>
<path class="st0" d="M112.3,106.6c0.3-0.5,0.5-0.9,0.8-1.3c0.3-0.4,0.6-0.8,0.9-1.2c0.2-0.3,0.5-0.5,0.9-0.6c0.1,0,0.6,0.3,0.6,0.4
	c0,0.3-0.2,0.6-0.4,0.9c-0.4,0.7-0.8,1.4-1.3,2.1c-0.3,0.3-0.7,0.6-1.1,0.9L112.3,106.6z"/>
<path class="st0" d="M63.5,56.7c-0.5,1.1-4.2,3-5.4,2.9C58.5,58.2,61.8,56.5,63.5,56.7z"/>
<path class="st0" d="M111.9,84.6c0.3-0.8,0.6-1.5,1-2.2c0.1-0.2,0.7-0.3,1.1-0.2s0.4,0.5,0.5,0.8c0.1,0.3,0.2,0.6,0.3,0.9
	c0.1,0.2,0.3,0.6,0.2,0.7c-0.2,0.2-0.5,0.3-0.8,0.3C113.5,84.8,112.8,84.7,111.9,84.6z"/>
<path class="st0" d="M71.5,54.8c-0.3,1.3-2.3,2.2-4.9,2c0.5-0.6,0.8-1.2,1.3-1.4C69.1,55.2,70.3,55,71.5,54.8z"/>
<path class="st0" d="M81.2,55.9l4.5,2.2c-1,1.4-2.8,0.7-4.6-1.8L81.2,55.9z"/>
<path class="st0" d="M94.9,103.4c0.9-0.9,1.8-1.7,2.8-2.3c0.5-0.3,0.6,0.5,0.5,1C97.7,103.2,96.8,103.7,94.9,103.4z"/>
<path class="st0" d="M53.5,77.3c-0.2-0.4-0.5-0.7-0.4-1c0-0.6,0.2-1.2,0.4-1.8c0.1-0.3,0.7-0.6,0.9-0.6s0.8,0.6,0.7,0.9
	c-0.2,0.7-0.5,1.4-0.9,2.1C54.1,76.9,53.9,77,53.5,77.3z"/>
<path class="st0" d="M57.7,67.8c-0.6,0.7-1.1,1.3-1.6,1.8c-0.2,0.2-0.7,0.2-1,0.4c-0.1-0.3-0.1-0.7-0.1-1
	C55.1,67.7,56.2,67.3,57.7,67.8z"/>
<path class="st0" d="M53.3,110.6c-0.6-0.6-1.2-1.2-1.7-1.9c0,0,0.4-0.7,0.6-0.7C53.3,107.9,53.9,108.9,53.3,110.6z"/>
<path class="st0" d="M96.8,67.5c0-1,0.2-1.7,1.2-1.7c0.3,0,0.9,0.5,0.9,0.6C98.6,67.6,97.6,67.2,96.8,67.5z"/>
<path class="st0" d="M59.5,54.3l-3.1,1.5c0.2-1.2,1.2-2,2.4-1.8C59,54.1,59.2,54.2,59.5,54.3z"/>
<path class="st0" d="M100.6,70l-1-1c0.5-0.3,1-0.6,1.5-0.8c0.1,0,0.4,0.3,0.6,0.4L100.6,70z"/>
<path class="st0" d="M100,122.7l-1-0.9c0.4-0.3,0.9-0.5,1.4-0.6c0.3,0,0.6,0.4,1,0.5L100,122.7z"/>
<path class="st0" d="M52.1,103.8c-1.1,0.7-1.7,0.5-1.9-0.2c-0.1-0.3,0.1-0.8,0.2-1.2L52.1,103.8z"/>
<path class="st0" d="M96.6,72.8c-1,0-1.9,1.1-3,0.5l-0.1-0.5l3-0.6L96.6,72.8z"/>
<path class="st0" d="M89.9,69.6c0.1-0.3,0.1-0.6,0.2-0.7c0.4-0.4,0.8-0.7,1.3-1c0.2,0.1,0.3,0.3,0.4,0.4c-0.4,0.5-0.8,0.9-1.3,1.3
	C90.4,69.6,90.2,69.6,89.9,69.6z"/>
<path class="st0" d="M62.8,52.4c-0.5,0.4-1.1,0.7-1.7,1.1c-0.2,0.1-0.5-0.1-0.8-0.2c0.1-0.2,0.3-0.6,0.5-0.7
	c0.6-0.2,1.3-0.4,1.9-0.5L62.8,52.4z"/>
<path class="st0" d="M86.4,90.3c0.2-0.5,0.3-1,0.6-1.4c0-0.1,0.4,0,0.6,0.1l-0.5,1.5L86.4,90.3z"/>
<path class="st0" d="M79.1,54.8L77,54.6v-0.3h2.1V54.8z"/>
<path class="st0" d="M93.1,116.9l-1.8,0.2l-0.1-0.6l1.7-0.4L93.1,116.9z"/>
<path class="st0" d="M82.3,108.2c-0.2-0.3-0.3-0.7-0.4-1.1c0-0.2,0.5-0.4,0.8-0.4s0.5,0.3,0.8,0.5l-0.7,0.6L82.3,108.2z"/>
</svg>
