<svg id="Layer_1" data-name="Layer 1" xmlns="http://www.w3.org/2000/svg" viewBox="0 0 704.91 566.57"><defs><style>.cls-1{fill:#180558;}.cls-2{fill:#ff1de5;}.cls-3{fill:#ff00e2;}.cls-4{fill:#f2e205;}</style></defs><path class="cls-1" d="M764.74,541s-492.41,77.83-599.13-13.32c-113.17-107-160.67-416,99.85-471.53C536.18-1.52,806.9-42.57,693.73,327.67,658.51,442.9,764.74,541,764.74,541Z" transform="translate(-68.6 -12.02)"/><polygon class="cls-2" points="693.8 520.24 694.27 519.97 692.58 520.07 693.8 520.24"/><path class="cls-2" d="M757.67,527.15c-1.18,2,2,1.63,2.24,3.06l-.23.49,1.67-.79C760.13,529,757.92,528.36,757.67,527.15Z" transform="translate(-68.6 -12.02)"/><path class="cls-2" d="M755.75,528.41l0,1,1,0C756.25,529.37,756.23,527.91,755.75,528.41Z" transform="translate(-68.6 -12.02)"/><path class="cls-2" d="M753.62,514.35c-.39.26-.75,1-1.16,1.48l.87.2C753.34,515.54,753.12,514.83,753.62,514.35Z" transform="translate(-68.6 -12.02)"/><path class="cls-2" d="M752.46,515.83l-1.3-.3C751.7,516.32,752.1,516.21,752.46,515.83Z" transform="translate(-68.6 -12.02)"/><path class="cls-2" d="M750.2,514a2.05,2.05,0,0,0,.51-1.49l-.76,1.15Z" transform="translate(-68.6 -12.02)"/><path class="cls-2" d="M749.93,513.69l0,0c-.26-.37-.44-.63-.51-.75Z" transform="translate(-68.6 -12.02)"/><path class="cls-2" d="M750.26,514.07l-.06-.08C750.12,514.1,750.1,514.15,750.26,514.07Z" transform="translate(-68.6 -12.02)"/><path class="cls-2" d="M751.93,518.53c-1,0-2.41-.51-2.45,1.18C750.46,519.48,750.48,518.51,751.93,518.53Z" transform="translate(-68.6 -12.02)"/><path class="cls-2" d="M749.32,515.52l.49,1.06c.25-.24.51-.72,1-.71Z" transform="translate(-68.6 -12.02)"/><polygon class="cls-2" points="680.05 503.33 680.72 503.5 680.54 503.1 680.05 503.33"/><path class="cls-2" d="M748.45,511.62s-.08,0-.12,0S748.29,511.77,748.45,511.62Z" transform="translate(-68.6 -12.02)"/><path class="cls-2" d="M742.1,504l-.13.22.19-.12Z" transform="translate(-68.6 -12.02)"/><path class="cls-2" d="M748.51,511.23a3.94,3.94,0,0,0-1,0,2.66,2.66,0,0,0,.85.36A1.34,1.34,0,0,1,748.51,511.23Z" transform="translate(-68.6 -12.02)"/><path class="cls-2" d="M734.27,507.54c1-.65,2.7-.28,2.33,1.41,1.38.35,4.14-2.65,5.37-4.75-.45.29-.84.58-2.08.11-.3.71.24,2.94-1.2,2.83-1.4-.83-.39-1.24-.3-2.21-.85,1.4-2.91-.22-4.51,1.36l1.42.6C735,507.12,734.3,507.06,734.27,507.54Z" transform="translate(-68.6 -12.02)"/><path class="cls-2" d="M743.14,506l.4.27a4.29,4.29,0,0,1,.36-2.25,2.1,2.1,0,0,0-1.74.09c.4.64.8,1.28,1.23,1.91Z" transform="translate(-68.6 -12.02)"/><path class="cls-2" d="M746.54,520.63a.62.62,0,0,1,.19-.25C746.51,520.38,746.39,520.4,746.54,520.63Z" transform="translate(-68.6 -12.02)"/><path class="cls-2" d="M746.57,519.42c.24,0,.74-.23,1,.26,0,.6-.49.41-.81.7.47,0,1.44.24,1.3-.93h-.24c-.23-1,.32-2.9.56-2.9A11.56,11.56,0,0,0,746.57,519.42Z" transform="translate(-68.6 -12.02)"/><path class="cls-2" d="M745.32,513.8l-1.66-1-.31,1.44.51-.46C744.31,514.73,744.83,514,745.32,513.8Z" transform="translate(-68.6 -12.02)"/><polygon class="cls-2" points="673.91 491.4 675.17 490.75 672.97 491.09 673.91 491.4"/><polygon class="cls-2" points="672.38 489.61 673.41 488.96 672.45 488.89 672.38 489.61"/><path class="cls-2" d="M155.53,115.86c-1.06,1-2,2.11-3,3.16C154,117.55,154.85,116.55,155.53,115.86Z" transform="translate(-68.6 -12.02)"/><path class="cls-2" d="M181,97.16l.34-.92C180.26,97.3,179.88,97.82,181,97.16Z" transform="translate(-68.6 -12.02)"/><path class="cls-2" d="M723.5,133.65c0-1.75-.08-3.55-.13-5.25s-.24-3.31-.37-4.67c-.28-2.73-.62-4.44-1.18-3.85l-.75,2.41c.72,2.3,1.29,4.36,1.7,6.23S723.34,132.09,723.5,133.65Z" transform="translate(-68.6 -12.02)"/><path class="cls-2" d="M435.38,25.63l2,.15L441.59,24Z" transform="translate(-68.6 -12.02)"/><path class="cls-2" d="M431.5,31.69c-2.9.08-5.79.2-8.68.32C424.79,32.05,427.58,31.92,431.5,31.69Z" transform="translate(-68.6 -12.02)"/><path class="cls-2" d="M84.49,268.32l.94,5.2C86.07,265.57,85.1,269,84.49,268.32Z" transform="translate(-68.6 -12.02)"/><path class="cls-2" d="M698.74,415.47c-.34-2.72-.69-5.15-1.06-7.37s-.51-4.24-.8-6.12C697.09,408.57,697.32,414,698.74,415.47Z" transform="translate(-68.6 -12.02)"/><path class="cls-2" d="M156.61,96.81c-2.13,1.92-2.92,2.87-2.67,3C156.12,97.9,157.29,96.7,156.61,96.81Z" transform="translate(-68.6 -12.02)"/><path class="cls-2" d="M695.1,386.43c-.08,1-.1,1.9-.16,2.88.32,2,.66,3.93,1,6,.15,1,.29,2.11.43,3.22s.36,2.24.55,3.44c-.08-1.21-.15-2.46-.23-3.74s-.13-2.59-.26-3.9-.3-2.64-.55-4S695.43,387.74,695.1,386.43Z" transform="translate(-68.6 -12.02)"/><path class="cls-2" d="M522,559.87c.47,0,1,0,1.47.06C523.56,559.75,522.92,559.78,522,559.87Z" transform="translate(-68.6 -12.02)"/><path class="cls-2" d="M711.12,554.48c-1.84.32-4.85.72-7.69,1.1A75.76,75.76,0,0,0,711.12,554.48Z" transform="translate(-68.6 -12.02)"/><path class="cls-2" d="M736,493.61c.36.35.17,0,0,0Z" transform="translate(-68.6 -12.02)"/><path class="cls-2" d="M733,498.6a1.11,1.11,0,0,0-.64.21A1.45,1.45,0,0,1,733,498.6Z" transform="translate(-68.6 -12.02)"/><path class="cls-2" d="M689.34,344.9l.08-.36C688.92,345.73,689,345.53,689.34,344.9Z" transform="translate(-68.6 -12.02)"/><path class="cls-2" d="M735.9,494.56a2.05,2.05,0,0,0,0-.74A2.58,2.58,0,0,0,735.9,494.56Z" transform="translate(-68.6 -12.02)"/><path class="cls-2" d="M736.36,494.12a3.47,3.47,0,0,0,.15.43C736.72,494.48,736.81,494.35,736.36,494.12Z" transform="translate(-68.6 -12.02)"/><path class="cls-2" d="M735.52,493.08a1.85,1.85,0,0,1,.34.74c0-.13.06-.21.11-.21C735.87,493.5,735.73,493.35,735.52,493.08Z" transform="translate(-68.6 -12.02)"/><path class="cls-2" d="M182,534.15c.21.17.47.35.7.55C186.51,536.28,184.9,535.45,182,534.15Z" transform="translate(-68.6 -12.02)"/><path class="cls-2" d="M653.21,51.64c.16.09.27.11.42.19l-.48-.35Z" transform="translate(-68.6 -12.02)"/><path class="cls-2" d="M639.92,45.68a38.26,38.26,0,0,1,4.21,1A32.9,32.9,0,0,1,647.46,48a31.53,31.53,0,0,1,5.69,3.47l-1.09-2.93c-.39-1-.81-1.89-1.22-2.85l-5.48-.14C643.56,45.53,641.71,45.64,639.92,45.68Z" transform="translate(-68.6 -12.02)"/><path class="cls-2" d="M109.36,175.08c1.87-2.91,4-5.64,6-8.43-1.08,3-2.28,5.57-3.17,7.83l-2.11,5.29c-.92,2.41-.61,2.35,2.31-1.49-.38-.4-.39-1.24-.12-2.44a20.85,20.85,0,0,1,1.65-4.45c.81-1.73,1.81-3.68,2.92-5.74l3.78-6.24c1.28-2.12,2.74-4.13,4-6.1s2.51-3.77,3.55-5.38a30.67,30.67,0,0,0,2.31-4.17c.49-1.12.69-1.94.39-2.41l5-4.67c-1.27,1.47-1.28,1.87-2.53,3.32a39.52,39.52,0,0,0,3-3,24,24,0,0,0,2-2.35,20.88,20.88,0,0,0,2.3-4.12,24.57,24.57,0,0,1,2.77-4.76,37.27,37.27,0,0,1,6.61-7,39.1,39.1,0,0,1,5.5-4c1.14-.63,1.34-.43-.06,1.06l4.76-4.65c.78-.8,1.6-1.54,2.44-2.27l2.49-2.22c3.13-2.29,2.8-1.13-.3,1.14l4-3.14,4.12-3c1.38-1,2.74-2,4.13-3l4.25-2.76-.06.18c.53-.52,1.24-1.19,2-1.93l1.28-1.15c.45-.38.93-.75,1.4-1.14,1.91-1.52,3.88-3,5.18-4,4.81-2-2.06,1.67-.65,1.47l2.34-1.62c.79-.53,1.6-1,2.4-1.52l4.83-3c2.3-.57,1.46.46-.81,2-1.14.79-2.63,1.72-4.28,2.67l-1.26.71-1.27.76c-.85.5-1.72,1-2.57,1.46,5.54-.83,7.51-2,10.71-4.19.8-.54,1.68-1.14,2.72-1.8s2.28-1.27,3.74-2,3.15-1.47,5.15-2.28,4.39-1.5,7.12-2.29c-3.21,1.5-6.44,2.94-9.54,4.63a54.79,54.79,0,0,0,11.35-2.83c1-.34,2.1-.74,3.23-1.09l3.54-1c1.23-.36,2.51-.71,3.84-1.06s2.71-.72,4.2-1c-.37,0-1,.07-1.85.18l-2.91.48c-2.18.36-4.71.77-6.82,1s-3.73.45-4.19.15.29-1,3.06-2.37a58.7,58.7,0,0,0,5.85-1.85c1.13-.41,2.33-.9,3.63-1.47S235.52,71,237,70.33c.53,1.42,6.51-1,14.33-3.12l0,2c2.06-.7,3.54-1.3,4.7-1.78a22.48,22.48,0,0,0,2.7-1.25,41,41,0,0,1,4.81-2.5c1.2-.25,2.28-.46,3.26-.62s1.91-.26,2.73-.34a27.09,27.09,0,0,1,4-.11,17.35,17.35,0,0,1,4.64,1c15.69-3-11.3-.12,7.13-4.36,13.15-2,22.11-4.66,37.45-8.92,9.25-1.15-1.35,1.49,2,1.39l7.78-3.13c2-.34,1.44.25,1.16.55,6.69-1.91.18-2,10.8-4.62,2.5-2.68,22.58-1,35.44-5.71,3.37,0-1.38,1.45-.25,2L396,36.66c3.45-.91,6.47-1.87,13.83-4.06q6.5-.35,13-.59c-4.81-.06-4.27-.95-1.23-2.19,1.52-.61,3.66-1.32,6.08-2.05s5.11-1.44,7.71-2.14c-3.45-.27-6.4-.51-8.37-.55,5.6-1.08,11.19-2.21,16.8-3.2,2.09.07.46.95-2.22,2.09,1.14-.3,2.21-.59,3.05-.84,6.14,0,3.13,1.5-1.07,3.11l-6.23-.46c-4,1.73-7.74,3.55-6.72,4.57a44.36,44.36,0,0,1,5.45-1.24c-1.05.46-1.71.84-1.18,1s2.3-.54,5-1.39l4.1,1.72.82-1c3.7-.22,7.39-.43,11.09-.58s7.38-.35,11.08-.44l11.5-2.82c3.85-.93,7.79-1.9,12-2.74,2.12-.43,4.32-.88,6.63-1.28s4.71-.75,7.24-1.1,5.21-.65,8-.9,5.8-.53,9-.64c-6.25,1.66-1.3,2.63-1.62,4.54-6.91-1.88-19.42,1.32-32.41,1.86,6.79-.21,5.35.78,3.65,1.21l5.76-.82,5.77-.73,5.77-.72,5.78-.62c-.48,1.57,4.95,1,11,1.63-1.15-.76-.65-1.28.9-1.64a23.28,23.28,0,0,1,3-.44c1.22-.1,2.63-.16,4.15-.2,3-.08,6.51-.12,9.82-.06s6.44,0,8.8-.06c.27.53-.18,1-2.12,1.27a64,64,0,0,1-11.1.06,31,31,0,0,0,8.07.71,60.56,60.56,0,0,0,6.43-.82,51.29,51.29,0,0,1,6.42-.82,30,30,0,0,1,7.92.94c-2.8-.22-4.29-.51-5.44-.08,6.64-.54,22.43,2.29,18.56,2.71-.92-.12-1.83-.27-2.76-.35,4.58.72,10.35,1.57,16.42,2.73s12.45,2.51,18.31,3.91c11.74,2.79,21.31,6,23.1,5.37,0,.38-3.44,2-4.64,2.07a143.41,143.41,0,0,1,33.46,7.66c-1.86.07-1.18,2.86-1.79,4.6a2,2,0,0,1-2.24,1.43,8.27,8.27,0,0,1-2.59-.66,31,31,0,0,1-4.17-1.79c1.74,1.27,3.73,2.6,6.1,4.39,1.2.88,2.57,1.77,4.08,2.8s3.11,2.23,5,3.48c-2-2-3.74-7.13-.43-4.74,1.81,2.24,3,3.68,3.9,4.91s1.56,2,2.29,2.86a38.42,38.42,0,0,1,2.58,3.19L679,71.27a39.78,39.78,0,0,1,2.43,3.63c-1.22-1.82-.41-2.41,1.28-1.83a11.29,11.29,0,0,1,3.06,1.73,14.44,14.44,0,0,1,3.4,3.44c-1.07-.56-2.39,2.55-4.21.78,1.11.93,2.15,1.94,3.24,2.93s2.2,2,3.24,3l3.06,3.22c1,1.09,2.11,2.14,3,3.32-.65-.9-1.18-1.28-1.58-1.29s-.63.31-.74.86a12.9,12.9,0,0,0,.41,5.07c-.07-.47.34.11,1,1.31.33.6.79,1.33,1.18,2.22s.84,1.87,1.31,2.89c2,4.06,3.63,9.14,4.67,11.21l-1.92-7.13c.83,2.31,1.63,4.29,2.41,6,.21.44.4.86.59,1.27l.51,1.21c.34.78.67,1.52,1,2.21,1.34,2.78,2.72,4.91,3.88,7.15,2.47,4.4,5,9,6.49,18.93-1.07-2.33-5.2-5.12-4.17,4.81l1.19,2.09,1.53,3c.56,1.15,1.18,2.45,1.83,3.88s1.36,3,1.93,4.65,1.22,3.46,1.81,5.34a60.15,60.15,0,0,1,1.62,5.92c.44,2.06.85,4.2,1.19,6.38.16,1.1.32,2.21.45,3.32s.17,2.25.22,3.38l-1.12,3.44.19,3.48c.07,1.16.12,2.32.12,3.47l.11,7c-.53-2.2-1.14-5.38-1.86-9.09s-1.69-8-2.6-12.31c-.52-2.15-1-4.35-1.55-6.53s-.95-4.31-1.53-6.36-1-4-1.53-5.9q-.33-1.4-.66-2.7c-.23-.85-.46-1.67-.68-2.46a23.94,23.94,0,0,1-.22,3.66c-.11.72-.21,1.1-.28,1.59-.14,1-.14,2.43.2,8-.47,2-.78.46-1.18-1.92s-.69-5.66-.8-7.28l.19,6.42c0,1.07.08,2.13.07,3.2l0,3.22-.09,6.43c0,2.14-.21,4.3-.3,6.44.52-.27.88.83,1.14,2.63a53,53,0,0,1,.49,6.8c.14,5,.24,10.06,1.12,9.64l-.06-7.12,0-3.55c0-1.19,0-2.37-.1-3.55l-.32-7.07c-.06-1.18-.09-2.36-.18-3.53l-.3-3.51c1-.58,2.62,3.48,3.51,10.1.24,1.66.46,3.47.64,5.41s.2,4,.23,6.13,0,4.37-.08,6.65-.37,4.59-.65,6.91c-1.3,4.64-3.3-3.91-4-3.56a67.45,67.45,0,0,1-.15,10c-.39,4.31-.92,8.51-1.28,9.32l0-8a43.92,43.92,0,0,0-.89,7.13c-.12,2.26-.08,4.46-.21,6.72a65.41,65.41,0,0,1-.63,7.07,38.33,38.33,0,0,1-2.06,8.15c-1,4.21-5,12.07-4.05,13a11.29,11.29,0,0,1,3.33-3.59,7.63,7.63,0,0,1,3.72-1.34,4.3,4.3,0,0,1,4.89,3.6c-.18.75-2,6.23-4,12.1-.51,1.47-1,2.95-1.53,4.4s-1.08,2.83-1.58,4.11c-1,2.56-1.88,4.67-2.46,5.81-3.51,6.47-1.7-11.46-4.7-5.94.48.39.21,4.37,0,6-.78,2.15-1.09,1.58-1.47,1.69s-.78.88-2,5.66c1.59,2.13-5.43,19.31.49,5-1.93,9.49-3.14,9.78-6.26,20.69,1.16-1.54,1.54,1.22,1.36,5.59,0,2.2-.22,4.78-.5,7.4-.13,1.31-.32,2.62-.49,3.91s-.24,2.57-.4,3.77c-.41-.67-1.51,1.32-2,2.3-.25,1.22-.5,2.4-.75,3.56s-.36,2.29-.54,3.39c-.34,2.21-.67,4.31-1,6.34-.08.51-.18,1-.23,1.51l-.15,1.49c-.09,1-.19,1.95-.28,2.91-.2,1.93-.39,3.81-.58,5.68s-.14,3.74-.21,5.63c0,.95-.07,1.9-.1,2.86s-.08,1.94,0,2.92c.07,2,.15,4,.23,6.13.06,1.06.08,2.14.17,3.25s.25,2.23.37,3.39c-.15.88-.12,3.59-.22,5.62s-.17,3.37-1,1.52c.41,1.32.9,2.56,1.41,4.18.25.81.51,1.72.77,2.78s.51,2.27.87,3.68c.33,5.66-.44,2.53-1.33-.95s-1.55-7.35-1.91-2.9c1.11.57,4.7,14.46,7.88,22.09a10.37,10.37,0,0,0-.35-4.23c-.41-2-1.17-4.42-1.94-7s-1.55-5.42-2.36-8.06-1.36-5.16-1.91-7.17c.64-.11,1.44.67,2.34,2.17s1.84,3.74,3.11,6.51,2.41,6.14,4,9.86c.73,1.87,1.51,3.85,2.32,5.91s1.74,4.18,2.62,6.4c.63,1.78,1.25,3.18,1.66,4.32s.71,2,.89,2.68c.36,1.32.31,1.81.11,1.92-.39.24-1.37-1-.74.19.57,1.7,1.26,3.21,1.85,4.64s1.19,2.73,1.75,3.95c1.12,2.42,2.27,4.39,3.26,6.14a50.92,50.92,0,0,0,2.87,4.47c.92,1.29,1.78,2.43,2.61,3.53,3.39,4.4,6.25,8.28,11.65,18.8,3.6,8.83-2.54,2.12-2.44,4.52-7.21-10.29-9-17-12.83-24.5l2,4.82,2.17,4.76c-2.44-3.19-6.69-10.45-8.15-14.8.45,2,2.14,5.68,4.43,10.48,1.23,2.35,2.61,5,4.14,7.77s3.25,5.73,5.12,8.69l2.82,4.53c.47.77,1,1.51,1.48,2.27l.75,1.14.11.18c.22.38.44.76.63,1.15a7.12,7.12,0,0,1,.78,2.3c.72.09,1.68.44,2-.26l-.67-.57c.65-1.39,2.42.28,2.32-1,1.43.4,3.36.59,3.65,2.32l-1.37,1.33c.43-.35.32-1.5-.4-1.53,1.06.05-.68,3.47,1.75,2.63l.42-1.66c1.42.38,3.84.34,4.19,1.8,1.13-1.6-.36-.13.81-2.2-1.7,2.29-2-3-3.48-.19,1.48-2.29-.14-2.06.87-4.37-.49.39-.71,1.06-1.12-.07a2.68,2.68,0,0,1-.6.1.25.25,0,0,1,0-.09l0,.1c-.11,0-.13,0,0,0a2.16,2.16,0,0,1-.43,1c-1.51.34-2.55-1.22-3.5-1.34-.14-.75.75-.16,1.09-.85l-1.44-.16c1.09-.85.88-2.81,2.46-1.91l-.76-1.25,0-.22v-.14l-.09-.15-.17-.32c-.48-.84-1-1.71-1.46-2.59-1-1.78-2-3.59-3.05-5.35s-2-3.52-3-5.11-2-3.05-2.81-4.31a70,70,0,0,0-4.59-7.44c-1.28-1.89-1.87-2.64-.26-.67l-2.34-4.13c-.79-1.38-1.47-2.8-2.21-4.2l-2.2-4.22-2-4.29.25-.29c-3.49-8.66-7.3-17.52-10-27.09a99.41,99.41,0,0,1-4.37-30.38c-.33-3.08-.75-6.23-1-9.91,0-1.84-.06-3.82,0-6,0-1.08,0-2.21.06-3.39l.36-3.71,1.32-1.93c0-1,.06-2.11.14-3.3s.33-2.46.51-3.77.44-2.66.67-4,.41-2.72.76-4c.62-2.61,1.19-5.09,1.56-7.14a24.94,24.94,0,0,0,.62-4.54,21,21,0,0,0,2-3.73c.67-1.54,1.27-3.27,2.05-5.45,1.49-4.25,3-9.34,4.47-14.63s2.71-10.83,4-15.9,2.27-9.76,3.31-13.34l-1.37-.91a298.19,298.19,0,0,0,5.87-32.25l-1.5.51c.28-2.72.66-5.83,1.27-9.2.29-1.68.63-3.43,1-5.24.18-.91.37-1.83.56-2.76s.34-1.9.52-2.86c.68-3.87,1.51-7.92,2.15-12.11s1.17-8.5,1.5-12.85c.47,1.23-.16,5.62-.78,8.69.65-2.54,1.18-5.14,1.59-7.78s.57-5.34.74-8c.08-1.35.14-2.7.2-4.06s0-2.72,0-4.08c0-2.72-.12-5.44-.21-8.13s-.38-5.4-.55-8l-.24-4c-.11-1.31-.22-2.62-.33-3.91-.2-2.58-.35-5.13-.4-7.62s-.24-4.95-.19-7.36c-.24-1.17-.43-2.26-.58-3.3s-.35-2-.47-2.93c-.25-1.86-.37-3.56-.44-5.24a9,9,0,0,0,.24,1.16c0-.49-.16-1.21-.27-1.95,0-2.13-.26-4.31-.5-6.68,0,2,.22,4,.34,5.64-.29-1.82-.86-4.08-1.43-6.57l-.94-3.84c-.37-1.31-.82-2.63-1.24-3.94l.84-2.65-.36-1.23c-.39-2.71-1-3.7-1.32-3.64s-.6,1.17-.79,2.71a63.52,63.52,0,0,0-3-6.66,7,7,0,0,0,0-2,9.37,9.37,0,0,0-.52-2.27c-.53-1.57-1.3-3.27-2.07-5l-1.17-2.64c-.42-.86-.82-1.73-1.17-2.59a15.85,15.85,0,0,1-1.25-5.1,41.57,41.57,0,0,1-3.46-5L704.79,87l-.63-1-.71-1-3-4.15c-.51-.7-1-1.41-1.53-2.06l-1.62-1.9c-1.06-1.23-2.09-2.38-3-3.37a17.89,17.89,0,0,0-2.69-2.32,5,5,0,0,0-1.93-1c.14-.36-.78-1.7,1.14.54l-2.78-3.63c-1-1.16-2-2.25-3-3.34s-2-2.14-3.13-3.09-2.23-1.77-3.37-2.55L677.84,55c-1-.62-2-1.12-3-1.66l-3-1.6c-2-1.1-4.05-2-6.09-2.91-2.92-2.83-5.15-4.64-5.61-5.51s.82-.74,4.64.86c-8.86-4.39-12.5-5.82-15.73-7.37-1.66-.68-3.23-1.3-5.38-2.07a81.74,81.74,0,0,0-8.86-2.61l1.18-.83a80.59,80.59,0,0,0-9.83-2.87c-1.68-.48-3.33-.81-4.72-1.24a13.4,13.4,0,0,1-3.32-1.35A41,41,0,0,0,612,23.44c-1.3-.43-2.72-.87-4.24-1.33l-4.93-1.25A226.4,226.4,0,0,0,578,16.42c-9.22-1.23-19.11-2-28.75-2.62-4.82-.24-9.58-.58-14.18-.74L522,12.42c3.23,1.77-.62,1.36-5.44,1s-10.64-.82-11.23.63c-2-.75-6.6-1-1.27-2-16.84,1.61-25.48.17-36.87,3.57-2-.67,3.48-1.58,1.72-1.92-1.33.31-5.27,1.24-7.07.9s2.39-1,5-1.56c-17.19,1.83-18.59,4.73-19.55,7.29-8.77-.15-13.07.6-19.08,3-3.1-.38-8.22-.54,2.31-2.24-3,.31-12.1,1.28-20.5,2.51s-16.08,2.7-16.22,3.71c-1.94-.21-8.29,1.21-9.81,1.7l-13.82,2.21c-3.58.58-7.12,1.22-13.59,2.5l3.65-.34c-4.69,3.25-10.68,2.49-21.07,4.76l.25-.29c-12.13,1.47-14.67,2.19-17.17,2.87s-5,1.3-17,2.74l1.57,1.18c-1.56,3.53-21.23,2.45-34.63,6.54l5.1-.22c-3.62,1.33-9,1.33-14.53,1.28s-11.18-.27-15,.65c-1.71.2,2.48-1.17,4.75-1.92-10.16,1.72-10.68,2.42-10.47,3.15.1.37.38.77-.28,1.35A7.56,7.56,0,0,1,240,56.49a39,39,0,0,1-4,1.58c-3-.14,2.69-3.62-7.21-.7a34.35,34.35,0,0,0-6.63,2.5c-1.49.68-3.16,1.43-4.93,2.27L211.65,65c-7.74,3.82-16.17,8.57-22.88,11,3.15-.71,6.22-1.38.21,2.37-2.35,1.35-5.18,2.82-8.27,4.29-1.56.72-3.11,1.56-4.7,2.4l-4.79,2.54c-1.62.83-3.13,1.83-4.62,2.76s-2.92,1.91-4.27,2.87a33.8,33.8,0,0,0-6.44,6c-1.24.67-1.78.82-1.95.7-3,2.9-8.1,7.39-12.45,12-2.26,2.23-4.21,4.61-5.87,6.6-.83,1-1.56,1.92-2.16,2.73a18,18,0,0,0-1.32,2.13,11.49,11.49,0,0,0-4,2.35c-.75.63-1.57,1.34-2.38,2.16s-1.63,1.76-2.47,2.76a75.54,75.54,0,0,0-5.17,6.64c-.83,1.22-1.68,2.46-2.54,3.7-.42.62-.85,1.24-1.25,1.87l-1.17,1.92-2.3,3.77c-.76,1.23-1.49,2.42-2.13,3.61-1.33,2.35-2.57,4.49-3.7,6.26-2.12,3.63-3.79,5.78-4.8,5.17-1.07,1.86-2,3.77-3,5.68s-2,3.8-2.84,5.74c-1.75,3.89-3.57,7.75-5.11,11.72l-.18-.8c-.82,1.88-1.57,3.6-2.22,5.22s-1.13,3.12-1.61,4.51-.89,2.67-1.25,3.85-.6,2.3-.84,3.33c-.47,2.06-.8,3.81-1,5.4s-.34,3.07-.47,4.51c-1.35,3.52-1,.77-1.16.4l-1.33,4c-.39,1.27-.73,2.48-1.06,3.62-.65,2.29-1.26,4.33-1.72,6.22-.87,3.78-1.59,6.85-2,9.85a136.38,136.38,0,0,0-1.22,21.58l-1.74,1.88a23.3,23.3,0,0,1-.18,3.06c-.11,1.35-.3,3-.53,4.9-.52,3.8-1,8.62-1.51,14-.9,10.78-1,23.92.69,35.45a5.11,5.11,0,0,1-.83-2.51c1.69,13,2.48,28.64,4.4,42.16.51,3.36,1,6.61,1.56,9.63S76.3,372.8,77,375.3c1.47,5,3.05,8.8,5.05,10.74,1.89,5.43,3.94,10.8,6.06,16.12-3-10.68-2.14-10.05-.83-7.89s3.18,5.84,2.34,1.37a98.63,98.63,0,0,1,3.2,12.73c.59,3.16.27,4.1-1.56-.92L91,405.77c-1-.71-1,.59-.53,3s1.61,5.72,2.74,9.2,2.48,7,3.39,9.66,1.38,4.48.87,4.52A373,373,0,0,0,127,489.89a253.62,253.62,0,0,0,18.72,25.88c1.73,2,3.43,4,5.18,6s3.55,3.89,5.41,5.81l2.85,2.85,1.43,1.43c.24.23.47.47.72.7l.82.66,3.28,2.62,1.65,1.3,1.67,1.14c-.47-.79-.95-1.5-1.39-2.33L166,533.53c1,.76,1.94,1.62,3,2.29l3,2.08c1,.67,2,1.43,3.07,2l3.15,1.86c1.54,1.19,2.46,2.23,1.85,2.29s-2.77-.79-7.29-3.58a17.62,17.62,0,0,0,4.24,2.93c.85.47,1.74.92,2.64,1.34s1.85.73,2.74,1.05c1.78.63,3.44,1.13,4.68,1.45a6.11,6.11,0,0,0,2.2.31c4.55,2.24,6.31,3.34,6.5,3.68s-.23.23-.8.16-1.38-.29-2.3-.54c-1.84-.5-4.08-1.22-5.51-1.65s-2-.66-.58.07l7.91,3.3-1.66-1a36.63,36.63,0,0,0,4.22,1c1.21.23,2.32.44,3.58.74,2.5.64,5.66,1.43,11.51,3.45,7.36,2.65,3.45,2.47,6.38,3.43-.06.13.92.56,4.55,1.31,5.84,1.65,11.71,3.07,17.6,4.4-2.24-1-4.46-2.21-6.67-3.31,2,.24,4,.61,5.83.94s3.39.6,4.47.76c2.18.31,2.38.09-1.48-1.72,5.62,2.85,22.11,6.12,38.13,8.09L292.75,572l10.49,1c6.33.54,11.12,1,13,1.37,11.18-.49,22.09.15,35.63.84-1.68-.26-3-.91-2.44-1.4s3-.82,8.81-.53c-2.2,2,3.13,2.65,10.19,3.08s15.84.71,20.56,2.24c-4.21-1,4.1-1.08,11.81-1.31s14.8-.65,8.17-2c9.75.25.61,1.55,8,2.43,11.6-.94,24.37-1,37.85-1.06s27.64-.21,41.94-1.26c.42-.56-4.42-1.12,1.68-2.27,5.08.63,10.17,1.22,15.26,1.8,5.64-.61,5-3.43,15.44-2.25-1.48-.36-3.7-.9.07-1.32,28.09-.63,56.63-3.6,85.23-6.71s57.28-6.33,85.86-7.47c-7.79-.07-2.69-.82,3.15-1.6-3.84.24-.08-1.33-.92-2l23.91-1.1c4-2.58,25.33-3.67,27.51-6L746.5,548c9.61-3.68-14.62-3.05-13.57-6.19-10.77,4.13-29.8.14-47.59,6.08-4.1-.11,3.33-1.37,1.09-1.78-4.48,1.82-10,2.76-20.47,3.42l1.13-.45c-14.54,1.86-25,2.76-35.88,3.53l-38.7,2.53,2.56,1.22a88.73,88.73,0,0,1-11.92.08c-7.89,2.94,19.81-1.69,12.66,1.4-4.81-1-17.23.09-29.29,1.05s-23.75,1.71-27,.26c-10.85.76,3.3,1.45-7.55,2.21l-2.94-.71L526.34,562c-7.13.29-10.8-.62-11.11-1.37,1.73,0,4.89-.54,6.74-.73a136.31,136.31,0,0,0-16.88.81c-5.73.51-10.71,1.06-12.3,1l10.46,0c-14.79,1.3-31.25,2-47.58,2.62s-32.53,1.13-46.85,2.16l2.18.67a134.07,134.07,0,0,1-20,.23c-2.33-.13-4.72-.34-8-.45s-7.54-.18-13.54-.18l.88-.14a112.88,112.88,0,0,1-17.82.46c6.08-.57-11.32-2-3.35-2.59-11.85.2-14.79.23-16.73.56a74,74,0,0,1-10.79,1.58l-3.52-1.38c-2.7.35-4.17.59-6.47.71a91.44,91.44,0,0,1-11.4-.35c9.87,0-7.44-2.47,3.63-2.68-6.19-1.23-11.6-1.91-16.4-2.43s-9-.78-12.83-1c-7.58-.58-13.49-1.16-18.8-4-5.92.55-.69,1.92,5.25,3.1s12.6,1.89,9.37,1.74c2.59.92.16,1.14-3.9.94-2-.12-4.48-.29-6.88-.61s-4.79-.73-6.72-1.15c-3.95-.72-7.09-2.46-11.7-4.39-2.28-1-4.93-2.14-8.21-3.27-1.64-.57-3.41-1.22-5.39-1.84s-4.17-1.22-6.53-1.95c1.89.57,2.07.41,4,.91-1.76-.63-3.49-1.24-5.28-1.71s-3.63-.87-5.48-1.38a47.11,47.11,0,0,1-11.55-4.41,13.79,13.79,0,0,1-4-.69c-1.29-.44-2.52-1-3.67-1.46a20.55,20.55,0,0,0-3.09-1.1,2.72,2.72,0,0,0-2.23.13c.68.31,1.36.64,2.05.94l2.11.85,4.21,1.69c2.83,1.06,5.72,2,8.57,3-2.46-.77-4.93-1.41-7.51-2s-5.17-1.48-8-2.36c-1.38-.51-2.79-1.07-4.26-1.68a38.91,38.91,0,0,1-4.51-2.13c-1.52-.83-3.11-1.73-4.73-2.76s-3.17-2.32-4.83-3.64c1.41.32,5.83,2.69,9.05,4a25.12,25.12,0,0,0-3-2c-1-.67-2-1.27-3-1.88s-2.07-1.21-3-1.93a26.26,26.26,0,0,1-2.68-2.42c.66-.25,2,.39,3.85,1.58,1,.54,2.11,1.21,3.31,2s2.48,1.63,3.94,2.4l4.41,2.5c1.57.76,3.16,1.52,4.72,2.24.79.35,1.55.72,2.34,1s1.56.58,2.32.84c1.52.52,3,1,4.3,1.3-2.19-1.54-7.1-3.1-10.52-4.67s-5.55-2.72-2.63-2.5a19.26,19.26,0,0,1-6.22-2c-1-.57-2-1.24-3.06-1.94l-1.57-1.1a13.62,13.62,0,0,1-1.53-1.19c-1.95-1.71-4.08-3.29-6.2-5.5-1.09-1-2.25-2-3.46-3.07s-2.5-2.11-3.88-3.11l1.67-.35a61.82,61.82,0,0,1-7.58-7.14c2,1.37,4.06,2.7,6.06,4a40.82,40.82,0,0,1-5.57-5.67,76.24,76.24,0,0,1-4.54-6.32c-2.83-4.32-5.4-8.72-8.71-12.72,6.26,8.84,6.78,10,6.08,10.06s-2.42-1,0,3q-1.68-1.89-3-3.49c-.89-1.1-1.66-2.12-2.36-3.05a43.75,43.75,0,0,1-3.24-4.84,34.5,34.5,0,0,1-3-6.85,57.21,57.21,0,0,0-2.93-7.55c-.74-1.64-1.69-3.54-3-5.82s-2.74-5-4.63-8.27a63.57,63.57,0,0,1,3.7,7.52c1,2.34,1.24,3.59-.69,1-1.27-2.59-2.75-5.57-4-8.39a67,67,0,0,1-2.66-7.16c-9.13-17.73,0,3.42-4.55-3.8A19.92,19.92,0,0,0,114,441a62.79,62.79,0,0,1-5.47-8.6l1.34-.64c-4-10.74-5.08-11.92-6.23-12.81s-2.24-1.51-5.08-11.5c1.62,2.54,3.2,5.07,4.83,7.56-1.36-3.31-2.73-6.63-4-10,.76.53,1.51,1.06,2.3,1.57A93,93,0,0,1,96.72,394c-.54-1.82-1.06-3.64-1.55-5.72l-1.63-7.18c-.15,1.41-.91,1.23-2-.55a42.54,42.54,0,0,1-3.44-10.14c-.31-3.49.24-2.61.46-2.62s.13-.23-.08-1.34-.64-3.07-1.38-6.6c1.49,3,3.41,6.23,3.43,12.63.63.52,1.67,2.89,2.28,3.42a118,118,0,0,0-2.34-12.54c-.92-4.27-1.9-8.26-2.35-10.81.26,2,.68,4.32.69,5.57-.49-1.67-1-3.33-1.47-5l-1.36-5c-1-3.36-1.69-6.76-2.54-10.16.1-3.32.9-.79,1.69,1.69-.77-4.14-1.73-7-2.54-13.12,1.34,1.48,2.55,1,4.11,9.56L85,326.36c-.49-3.25-1.06-6.51-1.49-9.78.44-1.36.82-10.17,1.42-7.64a79.1,79.1,0,0,0-.36-9c-.17-3.23-.53-6.68-.75-10.24s-.45-7.25-.35-10.94c0-1.85.09-3.69.19-5.53s.36-3.65.62-5.44a22.35,22.35,0,0,1-.13-5.36c.47-3.37.9-6.64,1.58-9.86l.93-4.84c.29-1.62.7-3.23,1-4.87l1-5c.38-1.68.73-3.39,1.06-5.16.61-3.54,1.4-7.19,2-11.2,1.49-2.74,3.06-5.42,4.57-8.1,1.69-6,.11-3.3-1.22-1.59s-2.38,2.45.53-7.65c2.23-7.1,3.17-8.23,3.8-8.17s1,1.28,2.25-1l1.59-6.3c.67-2.37,1.56-4.94,2.55-7.68a81.43,81.43,0,0,1,3.86-8.41,68.51,68.51,0,0,1,5.46-8.34c-1,2-1.91,3.79-2.89,5.49l-1.46,2.55C110.26,173.23,109.8,174.13,109.36,175.08ZM223,75.55c-2.71,1.4-7.88,4.57-10.26,4.59C215.29,77.29,218.08,77,223,75.55ZM459,25.73c-2.23.74-5.79.84-9.83.76A62.16,62.16,0,0,1,459,25.73ZM728.53,484.46a2.49,2.49,0,0,0-.23-.23C725.21,478.22,726.29,480.36,728.53,484.46Zm3.81,7.05a.59.59,0,0,0,.56-.27.49.49,0,0,1-.47-.11,1,1,0,0,1-.16-.22l-.07-.13,0-.08,0,0v0l-.08-.12c.06.17,0,.17,0,.22a.75.75,0,0,0-.07.12.59.59,0,0,0-.05.23C731.94,491.25,732.06,491.39,732.34,491.51ZM220.29,560.14,217.66,559a29.9,29.9,0,0,1,4.37,1.11C222.13,560.19,221.21,560.16,220.29,560.14Z" transform="translate(-68.6 -12.02)"/><path class="cls-2" d="M432,31a2,2,0,0,1-1.41-.63C429.45,30.76,429.46,31.05,432,31Z" transform="translate(-68.6 -12.02)"/><path class="cls-2" d="M84.32,267.35l-.06.47a1.1,1.1,0,0,0,.23.5Z" transform="translate(-68.6 -12.02)"/><path class="cls-2" d="M698.47,288.22a32.09,32.09,0,0,1,2.1-5.3C700.25,282.68,699.64,283.9,698.47,288.22Z" transform="translate(-68.6 -12.02)"/><path class="cls-2" d="M739.47,497.43l-.93-.66c.36.38.2.72.16,1.08C739,497.63,739.26,497.17,739.47,497.43Z" transform="translate(-68.6 -12.02)"/><path class="cls-2" d="M737.72,510.49c.24,0,.22.26.46.28l.52-.45C738.25,509.8,737.51,509.75,737.72,510.49Z" transform="translate(-68.6 -12.02)"/><path class="cls-2" d="M736.05,501.11c-1,.8-.22,1.12.42,1.6a.76.76,0,0,1-.08-.11C737.94,501.75,737,501.45,736.05,501.11Z" transform="translate(-68.6 -12.02)"/><path class="cls-2" d="M736.61,502.82a1.44,1.44,0,0,1,.45.56C737.68,503,737,503.06,736.61,502.82Z" transform="translate(-68.6 -12.02)"/><path class="cls-2" d="M734.21,492.83c-.07.48,1.44-.71,1.13-.25C736.88,492,732.43,491.67,734.21,492.83Z" transform="translate(-68.6 -12.02)"/><polygon class="cls-2" points="664.48 492 665.57 490.88 664.31 491.25 664.48 492"/><path class="cls-2" d="M730.48,498.37l.36,1.25a.56.56,0,0,1,.62,0C731.07,498.94,730.84,498.09,730.48,498.37Z" transform="translate(-68.6 -12.02)"/><path class="cls-2" d="M731.46,499.59c.21.34.45.63.78.67A2.44,2.44,0,0,0,731.46,499.59Z" transform="translate(-68.6 -12.02)"/><polygon class="cls-2" points="663.13 490.88 663.18 490.4 662.77 489.62 663.13 490.88"/><path class="cls-2" d="M698.76,436.41l-1.94-5.24c-.64-1.74-1.31-3.49-1.84-5.27-.79-1-.37,2.1,1.17,6C697.33,434.33,698.8,438.2,698.76,436.41Z" transform="translate(-68.6 -12.02)"/><path class="cls-2" d="M708.4,469.28a17.57,17.57,0,0,1-1.21-5l-1.87.54Z" transform="translate(-68.6 -12.02)"/><path class="cls-2" d="M694.77,439.09c-.91-.85-6.59-15.31-2-1.52C693.58,438.54,698,449.05,694.77,439.09Z" transform="translate(-68.6 -12.02)"/><polygon class="cls-2" points="638.97 260.62 638.38 263.41 641.51 263.71 638.97 260.62"/><path class="cls-2" d="M705.7,127.3c1.28,6.18,1.71,6.87,2.33,7.35s1.1.86,1.74,6.61c1.34,2.83-1.09-9.42.14-6.53-1.07-3.75-2-6.53-2.61-8S706.26,125.34,705.7,127.3Z" transform="translate(-68.6 -12.02)"/><path class="cls-2" d="M709.91,134.73c.36,1.2.77,2.46,1.25,3.81C710.52,136.36,710.16,135.35,709.91,134.73Z" transform="translate(-68.6 -12.02)"/><path class="cls-2" d="M246.16,72.08l.48-.63c-1.39-.19-3.25.36-7,1.46C241.84,72.63,244,72.28,246.16,72.08Z" transform="translate(-68.6 -12.02)"/><polygon class="cls-2" points="80.59 112.23 82.02 110.97 80.09 111.53 78.19 112.15 80.59 112.23"/><path class="cls-2" d="M101.42,202.72c.7-1.76,1.33-3.72,2-5.67s1.44-3.86,2.2-5.6a42.7,42.7,0,0,1-2.24,5L101.51,200C100.54,201.93,100.19,202.81,101.42,202.72Z" transform="translate(-68.6 -12.02)"/><path class="cls-3" d="M397.46,576c-34.55,0-65.82-1.26-93.57-3.76C235.39,566.05,188,552.09,163,530.75l-.15-.13c-34.11-32.25-62.74-83.24-78.54-139.88-16.89-60.53-18-122.86-3.27-175.51,16.87-60.09,62.41-137.14,183.58-163C344,35.35,435.08,17.12,512.17,14.85c83.83-2.47,141,14.29,174.91,51.23,22,24,34.35,57.2,36.65,98.63,2.45,44.07-6.36,99.29-26.18,164.13-7.82,25.61-9.07,52.48-3.69,79.88,4.33,22,23.5,60.57,38.74,81.07C754.33,519,762.14,532,762.4,532.26l11.1,11.43L765.36,545c-1.23.19-124.86,19.58-259.93,27.56C466.59,574.84,430.52,576,397.46,576ZM168.28,523.74c54.19,46.14,213,48.13,336.62,40.82,115.25-6.81,224.15-21.95,253.38-26.3-9.12-9.46-33.49-41.17-49.73-69.72-13.08-23-17-35.25-21.51-58.15-5.67-28.74-4.37-57,3.86-83.89,19.55-63.94,24.24-118.22,21.84-161.35-2.19-39.53-11.82-70-32.56-92.66-32.21-35.13-86.41-51-167.77-48.64C436,26.1,331.63,48.37,253.3,68.09,130.77,98.93,100.63,186.8,91.75,217.4c-14.84,51.12-13.23,112,3.27,171.19C110.44,443.83,135.23,492.45,168.28,523.74Z" transform="translate(-68.6 -12.02)"/><g id="bottom"><path id="T_fest" data-name="T fest" class="cls-4" d="M658.42,353.83a106.06,106.06,0,0,0-24.58-7.5c-4.69-.87-9.22-2.56-13.84-3.82-1.66-.45-3.37-.76-5.06-1.08-5.9-1.13-11.81-2.21-17.71-3.35-3.22-.62-6.42-1.34-9.62-2-4.46-.94-8.93-1.85-13.37-2.84-4.89-1.09-9.75-2.3-14.65-3.38-2.23-.49-4.52-.69-6.76-1.17-3.54-.76-7.06-1.65-11.39-2.67-1.39,6.73-2.71,13.1-4.14,20l41.61,9.55c-2.39,9.88-4.56,19.09-6.88,28.25-1,4.05-2.43,8-3.54,12s-2,8-3,11.93c-1.36,5.15-2.78,10.29-4.17,15.43-1.13,4.2-2.14,8.44-3.43,12.59-1,3.34-2.52,6.53-3.63,9.85s-2.06,7-3.13,10.44c-1.17,3.8-2.41,7.58-3.59,11.37s-2.28,7.64-3.55,11.41c-1.41,4.21-2.88,8.4-4.53,12.52-1.1,2.75-.82,3.31,1.9,3.91,5.86,1.29,11.64,2.92,17.5,4.19,3.65.8,7.39,1.2,11.62,1.86,1-5,1.93-9.77,2.86-14.57.77-3.94,1.55-7.88,2.28-11.83.39-2.15.65-4.33,1.07-6.48.91-4.74,2-9.46,2.83-14.2.61-3.24.94-6.53,1.57-9.76,1.61-8.24,3.4-16.44,5-24.7,1.35-7.16,2.34-14.4,3.71-21.56s3.18-14.44,4.53-21.71c1.06-5.72,1.81-11.51,2.49-17.29.19-1.68,1-1.75,2.17-1.55,3.86.68,7.73,1.38,11.56,2.19,5.62,1.19,11.22,2.51,16.83,3.72q11.37,2.46,22.77,4.84c2.95.61,3.52-.06,4.42-3.25C655.56,361.39,657.05,357.72,658.42,353.83Z" transform="translate(-68.6 -12.02)"/><path id="S" class="cls-4" d="M522.81,356.52a28.76,28.76,0,0,0-.6,3.11c-.24,3.84.06,7.62-1.48,11.44-1,2.48-.34,5.62-.43,8.46,0,1.76-.82,2.75-2.71,2.48-6.47-.93-12.91-2-19.4-2.74q-10.08-1.12-20.22-1.6a17.56,17.56,0,0,0-7.5,1.09c-4,1.7-5.2,5.86-6.24,9.56a24.78,24.78,0,0,0-.32,9,20.87,20.87,0,0,0,8.65,15.15c3.44,2.52,7.35,4.4,11,6.64,1.62,1,3.15,2.17,4.7,3.29,3.73,2.67,7.88,4.92,11.05,8.14A60.09,60.09,0,0,1,507.58,442a35.61,35.61,0,0,1,4.27,10,24,24,0,0,1,.08,9.84,49.69,49.69,0,0,1-5.82,16c-2.14,3.54-5.33,5.8-8.59,8-11.21,7.54-23.43,12.33-37.12,11-7.12-.67-14.35-.47-21.42-2.46-6-1.7-12.29-2.3-18.42-3.54-1.78-.36-3-1.34-2.39-3.7a48.47,48.47,0,0,0,1-6.73c.58-4.51,1-9,1.82-13.49.11-.66,1.88-1.54,2.79-1.45,6,.6,11.87,1.63,17.83,2.15a174.76,174.76,0,0,0,20.31,1c6.08-.18,12.06-1.44,16.92-5.84,3.8-3.45,5.74-12.15,4-16.64-.51-1.31-1.68-2.35-2.47-3.57-4.06-6.25-10.05-10.6-15.25-15.74-4.62-4.56-8.68-9.69-13.24-14.32-3.62-3.66-3.74-8.32-4.37-12.84-.57-4.07-.88-8.19-1.13-12.3-.28-4.49,1-8.75,2.62-12.85,3.23-8,9.53-13.57,16.36-18.1a20.77,20.77,0,0,1,12-3.43c8.46.27,17-.54,25.4-.3,4.82.14,9.62,1.44,14.41,2.3C519,355.47,520.93,356.05,522.81,356.52Z" transform="translate(-68.6 -12.02)"/><path id="E" class="cls-4" d="M329.48,437c.4,6.58.92,13,1.16,19.41.16,4.26-.2,8.54-.12,12.8.16,7.8.2,8,7.92,8.78,5.62.57,11.31.5,17,.81,3.85.22,7.69.6,11.53.91,6.86.55,13.73,1.05,20.58,1.69,3.12.29,3.59,1.44,3.23,4.59-.83,7.28-1.47,14.58-2,21.89-.22,2.8-.91,3.62-3.56,3.32-14.39-1.59-28.76-3.33-43.16-4.69-11.58-1.09-23.21-1.71-34.81-2.56-.91-.07-1.81-.24-3-.4.17-4.45.19-8.8.53-13.12.91-11.44,2-22.87,2.93-34.31.59-7.55,1.09-15.11,1.39-22.68.41-10.2.52-20.42.9-30.63.11-2.84.87-5.65,1.07-8.5.48-6.93.79-13.87,1.22-20.81.23-3.66.68-7.3.86-11,.1-2.15-.14-4.31-.24-6.83,4.77.06,9.31.13,13.85.15,6.48,0,13,0,19.42,0,2.28,0,4.55.1,6.83.23,7.49.43,15,1,22.47,1.32,6.08.26,12.18.21,18.26.33,1.9,0,3.25.4,3.07,3-.38,5.38-.43,10.78-.52,16.18,0,2.36-1.07,3.33-3.4,3-2.55-.37-5.11-.78-7.68-1-8.79-.86-17.57-1.71-26.37-2.46-5.19-.45-10.4-.73-15.61-1a3.53,3.53,0,0,0-2.14.69c-1.24,1-2.2,2.39-3.56,3.07-.63.32-1.91-.67-2.64-1-.81,12.21-1.64,24.77-2.49,37.55,2.26.31,4.41.67,6.58.88,2.64.25,5.3.34,7.95.55,10.47.85,20.94,1.79,31.42,2.55,4.36.32,8.75.25,13.12.51.57,0,1.57,1,1.55,1.52q-.18,8.11-.71,16.22c0,.48-1.06,1.28-1.63,1.28-3.66,0-7.31-.2-11-.32-6.85-.21-13.69-.37-20.54-.63-4.66-.17-9.31-.49-14-.7C340.14,437.47,335.13,437.28,329.48,437Z" transform="translate(-68.6 -12.02)"/><path id="F" class="cls-4" d="M228.93,451.63c-.09,1.08-.2,2.34-.32,3.89-3.11,1-3,3.33-2.19,6.4a94.36,94.36,0,0,1,2.12,11.86c1.17,8.21,2.19,16.44,3.38,24.65.75,5.25,1.51,10.5,2.62,15.67.43,2-.24,2.77-1.8,3.08-3.84.79-7.71,1.46-11.59,2.08-1.86.29-3.85,0-5.61.61-2.25.71-3-.1-3.3-2.12-.79-5.88-1.51-11.77-2.41-17.63-.71-4.65-1.64-9.27-2.45-13.91-.34-2-.67-4-.94-6-.93-6.73-1.75-13.48-2.76-20.19-1.22-8.09-2.72-16.14-3.87-24.24-1.78-12.43-3.29-24.89-5.06-37.31-1.2-8.41-2.7-16.78-4-25.18-.85-5.55-1.49-11.12-2.37-16.66a2.12,2.12,0,0,1,2-2.76c7.53-1.23,15.08-2.34,22.61-3.61,6.63-1.12,13.23-2.49,19.87-3.55s13.54-1.82,20.28-2.86c5.84-.9,11.64-2,17.46-3a8,8,0,0,1,3.25-.16,3,3,0,0,1,1.83,1.83c1.13,5,2.08,10,3.08,15,.78,4,1.59,7.91,2.29,11.88.4,2.31-1.44,2.32-2.93,2.52-6.63.88-13.25,1.79-19.89,2.56-8.95,1-17.91,1.91-26.85,2.91-2.67.29-5.33,1.07-8,1.05-2.8,0-3,1.62-2.83,3.5.3,2.89.86,5.76,1.36,8.62,1.24,7,2.46,14.07,3.79,21.09a65.37,65.37,0,0,0,2.3,9.42,4,4,0,0,0,3.18,2.13c5-.5,9.91-1.42,14.85-2.18,3.75-.59,7.5-1.15,11.24-1.74,2.37-.38,4.72-.87,7.09-1.19s3,1,3.17,3.2c.39,4.16,1.2,8.28,1.82,12.42.46,3.08,1.07,6.15,1.29,9.25.28,3.8-3.3,2.51-4.89,2.83-7.33,1.51-14.78,2.43-22.18,3.56Z" transform="translate(-68.6 -12.02)"/><path id="T" class="cls-4" d="M500.84,214.39c.28,5.57.56,10.92.85,16.62l-23-1.87c0,2.14-.08,4.31,0,6.48.24,5.28.5,10.56.88,15.84.52,7.1,1.16,14.19,1.74,21.29.07.84,0,1.7.05,2.54.24,2.3.54,4.59.78,6.88.09.89,0,1.79.12,2.68.24,2.3.54,4.6.81,6.89.33,2.94.62,5.88,1,8.81.16,1.26.5,2.5.71,3.76a5.4,5.4,0,0,1,.13,1.91c-.07.37-.61.93-.95.93-5.25.06-10.49.06-15.74,0-.73,0-1.15-.33-1.12-1.3.21-6.09.35-12.18.46-18.27.13-7.13.29-14.25.27-21.37,0-4-.45-7.94-.55-11.91-.16-6.67-.21-13.35-.32-20,0-.19,0-.38-.09-.94l-24.3,4.33c-.19-1.74-.38-3.11-.47-4.47-.24-3.36-.38-6.73-.64-10.09-.11-1.44.68-1.74,1.85-1.89,5.09-.66,10.17-1.39,15.26-2.05,3.47-.45,6.95-.79,10.42-1.25,3.17-.42,6.32-1,9.48-1.42,1.08-.16,2.16-.23,3.24-.36,5.09-.59,10.18-1.22,15.28-1.76A35.41,35.41,0,0,1,500.84,214.39Z" transform="translate(-68.6 -12.02)"/><path id="S-2" data-name="S" class="cls-4" d="M453.56,253.12c-.16,1.22-.24,2.35-.46,3.45-.65,3.17-1.37,6.34-2.05,9.51-.25,1.19-.88,1.47-2,1.19-2.67-.63-5.36-1.23-8.06-1.67-3.21-.54-6.44-1-9.67-1.31a65.4,65.4,0,0,0-8.62-.42c-1.09,0-2.12,1.12-3.22,1.62a6.89,6.89,0,0,0-3.86,3.55c-.66,1.53-.63,2.39,1,3.13,2.79,1.27,5.69,2.29,8.41,3.67s5.34,3.05,7.94,4.68c1.92,1.21,3.77,2.52,5.59,3.89a30.78,30.78,0,0,1,4.06,3.48,4,4,0,0,1,.93,2.52c0,2.88-.07,5.77-.28,8.64a30.91,30.91,0,0,1-.86,3.73c-.38,1.88-.74,3.77-1,5.66-.41,2.71-2.33,4.67-3.37,7.06-1.53,3.49-5,4.39-8,6a46.37,46.37,0,0,1-7.17,3.28c-2.3.8-4.69,1.65-7.21,1.26-3.4-.51-6.78-1.15-10.18-1.71-2.23-.37-4.49-.58-6.7-1.07-2.77-.61-5.49-1.43-8.24-2.14-2.27-.58-4.56-1.13-7.18-1.78.55-2.16,1.06-4.23,1.61-6.28.43-1.59.94-3.16,1.35-4.76.24-.94.53-1.41,1.71-1.16,3.27.71,6.58,1.19,9.86,1.86,3.44.71,6.83,1.69,10.28,2.29,3.81.68,7.66,1.16,11.52,1.54a7,7,0,0,0,5.43-2c1.42-1.27,3-2.41,4.3-3.74a3.83,3.83,0,0,0,.7-2c.5-3.21,1-6.41,1.34-9.64.06-.55-.8-1.24-1.32-1.78a24.13,24.13,0,0,0-10.49-6.33c-4.32-1.35-8.73-2.41-13-3.88-1.16-.4-1.95-1.85-2.95-2.78-3-2.82-4.35-6.61-5.54-10.33a8.88,8.88,0,0,1,1.19-8.43c1.63-2.2,2.53-4.93,4.75-6.74,3.54-2.87,7.2-5.48,11.93-6.1,2.13-.27,4.17-1.16,6.29-1.35a27.38,27.38,0,0,1,6.52.28c4.32.65,8.6,1.47,12.88,2.33,2,.41,3.95,1.11,5.95,1.59S451.42,252.69,453.56,253.12Z" transform="translate(-68.6 -12.02)"/><path id="N" class="cls-4" d="M327.84,211.5c3.06-.14,5.94-.32,8.82-.38a1.86,1.86,0,0,1,1.42.73c2.1,3.86,4.07,7.78,6.15,11.65s4.23,7.67,6.35,11.51c1.3,2.36,2.54,4.76,3.89,7.1,2,3.44,4.07,6.83,6.08,10.26,2.8,4.78,5.57,9.59,8.35,14.38,1.92,3.3,3.89,6.57,5.76,9.9.9,1.61,1.61,3.34,2.66,5-.25-2.5-.5-5-.76-7.49-.05-.49-.15-1-.18-1.47-.39-6.73-.84-13.46-1.15-20.19-.22-4.72-.34-9.45-.32-14.18,0-4.41.34-8.82.43-13.24.1-4.71.1-9.43.14-14.14,0-.53-.07-1.07-.12-1.74a11.45,11.45,0,0,1,1.22-.24c3.36-.28,6.72-.58,10.08-.81.77,0,1.41.2.92,1.27a3.79,3.79,0,0,0-.1,1.48q0,17.51,0,35c0,4,.19,8.06.21,12.09q0,9.71,0,19.41c0,5.22-.16,10.43-.17,15.65a25.29,25.29,0,0,0,.53,3.57c-.38,0-.76.07-1.14.08-3.63.07-7.27.16-10.9.15a2,2,0,0,1-1.38-.87c-2.62-4.05-5.18-8.14-7.76-12.22-2.23-3.53-4.48-7.06-6.69-10.6s-4.43-7.13-6.62-10.71-4.36-7.19-6.51-10.8c-2-3.4-4-6.84-6-10.24-1.3-2.17-2.7-4.28-4.27-6.76.24,1.72.53,3.05.6,4.39.17,3.57.22,7.15.37,10.72.17,3.77.51,7.54.57,11.31.17,10.21.23,20.43.33,30.65,0,1.61,0,3.23.09,4.85,0,1-.53,1.31-1.36,1.32-3.24.05-6.48.09-9.72.08a1.7,1.7,0,0,1-1.21-.63c-.15-.22.19-.76.28-1.17a14.25,14.25,0,0,0,.49-2.69c.05-7,0-14,.06-21,.14-11.85.38-23.7.56-35.55,0-2.13,0-4.25,0-6.37V212.43C327.8,212.13,327.83,211.84,327.84,211.5Z" transform="translate(-68.6 -12.02)"/><path id="U" class="cls-4" d="M264.73,224.1a16.5,16.5,0,0,0,1-1.65c.26-.62.38-1.3.63-1.93.39-1,1-1.23,2.12-.86,2.71.93,5.49,1.66,8.23,2.53a26.27,26.27,0,0,1,2.58,1.12c-.53,1.83-1.12,3.7-1.61,5.6-.57,2.23-1,4.51-1.59,6.73-1.12,4-2.34,7.91-3.52,11.86-1.25,4.19-2.51,8.38-3.75,12.58s-2.47,8.08-3.51,12.17a62.43,62.43,0,0,0-1,6.71,16.32,16.32,0,0,1-.35,2.63,6,6,0,0,0,.37,4.44c1.33,3.1,2.15,6.51,4.49,9a24.43,24.43,0,0,0,4.79,3.42,7.19,7.19,0,0,0,5,1c2.4-.3,4.86-.17,7.28-.39a4.91,4.91,0,0,0,2.35-1,23.83,23.83,0,0,0,7.33-8.9,29.2,29.2,0,0,0,3.05-8.62,94.94,94.94,0,0,1,2.31-10.33c.71-2.83,1.72-5.59,2.35-8.44.83-3.76,1.4-7.58,2.11-11.38.46-2.45,1-4.88,1.47-7.33.55-3,1-6.1,1.53-9.14.17-.91.5-1.79.78-2.82,2.22.55,4.45,1.07,6.66,1.65,1.56.41,3.12.86,4.64,1.42a1.43,1.43,0,0,1,.73,1.18,40.09,40.09,0,0,1-.77,4c-.81,3.56-1.7,7.11-2.42,10.69-.52,2.6-.77,5.24-1.25,7.84-.85,4.64-1.81,9.26-2.68,13.9-.74,4-1.28,8.06-2.17,12-.57,2.53-1.81,4.91-2.43,7.44a32.64,32.64,0,0,1-8.24,14.46c-2.8,3-6.48,4.32-10.35,5-3.31.57-6.72.48-10,1-3.17.5-6.15-.21-9.1-1a24.21,24.21,0,0,1-12.86-8.06,22.82,22.82,0,0,1-4.32-7,59.31,59.31,0,0,1-2-8.38,78.28,78.28,0,0,1-1.18-8.6c-.14-2,.28-4.1.29-6.15,0-1.41,1.08-2.21,1.54-3.33.38-.95,1-1.74.48-3-.28-.64.66-1.81,1.06-2.73a7.35,7.35,0,0,0,.48-1c.48-1.88,1-3.76,1.38-5.65.27-1.3.3-2.64.55-3.93.43-2.18,1.14-4.32,1.38-6.52s1.69-3.95,1.88-5.83c.36-3.49,1.9-6.54,2.8-9.79.47-1.71.29-3.86,1.86-5.3C265.26,225.29,264.82,224.43,264.73,224.1Z" transform="translate(-68.6 -12.02)"/><path id="K" class="cls-4" d="M183.34,237.63l14.74-2.51c.93,3.85,1.79,7.39,2.62,10.94s1.61,7,2.43,10.56c.68,2.9,1.33,5.81,2.17,8.66.18.62,1.14,1,1.89,1.63l3.95-5c4-5.09,8-10.14,12-15.27,2.72-3.53,5.32-7.16,8-10.76,1.71-2.33,3.36-4.71,5.12-7a3,3,0,0,1,1.63-1,39.13,39.13,0,0,1,4.8-.82c.4-.05,1.2.39,1.24.69.39,2.8.57,5.62,1,8.41.27,1.8-.95,2.84-1.8,4-2.49,3.43-5.11,6.76-7.68,10.13-3.5,4.6-7,9.18-10.48,13.79-3.2,4.25-6.36,8.52-9.55,12.78-.69.93.22,1.27.67,1.62,2.35,1.82,4.81,3.51,7.15,5.35,4.07,3.18,8.08,6.45,12.12,9.67,3.34,2.66,6.71,5.29,10.06,7.94,1.54,1.22,3.09,2.43,4.6,3.69.2.17.23.59.28.9.29,2.05.63,4.1.83,6.15.22,2.32.31,2.58-2,2.79-2.05.19-4.08.67-6.14.94a2.33,2.33,0,0,1-1.63-.25q-6-5.3-12-10.69c-4.95-4.46-9.87-9-14.83-13.43-2.81-2.53-5.69-5-8.52-7.51-.47-.42-.86-.91-1.45-1.54,1.15,13.24,2.3,26.29,3.47,39.68l-13.78,2.56C192.29,295.34,189.91,266.24,183.34,237.63Z" transform="translate(-68.6 -12.02)"/><path id="T_licht" data-name="T licht" class="cls-4" d="M469.32,122c-3.43-.23-6.59-.42-9.75-.65-5.35-.39-10.69-.8-16-1.18-1.1-.07-2.2,0-3.3,0s-1.36-.19-1.17-1.4c.65-4,1.1-8.11,1.64-12.16a18,18,0,0,1,.46-1.83c1.86.15,3.72.28,5.58.46s3.64.35,5.45.56c2.2.25,4.4.57,6.6.79,1.77.18,3.56.25,5.34.4,3.54.3,7.09.58,10.63.92,2.65.26,5.28.61,7.92.89,2.89.31,5.79.53,8.67.9,3.69.47,7.36,1,10.95,1.55-.45,4-.94,7.82-1.29,11.68-.11,1.1-.63,1.21-1.47,1.11-3.22-.39-6.45-.74-9.66-1.2-2.78-.4-5.54-1-8.31-1.4a13.06,13.06,0,0,0-1.68,0c-.27,3.53-.46,7-.84,10.5-.47,4.31-1.15,8.61-1.68,12.92-.47,3.87-.82,7.75-1.31,11.62-.4,3.12-.94,6.23-1.39,9.34-.35,2.49-.64,5-1,7.47q-.89,6.28-1.84,12.56c-.15,1-.8,1.2-1.73,1.06q-6-.92-12.11-1.76c-1-.14-1.54-1.33-1.17-2.89.64-2.65,1.42-5.27,2-7.93.42-1.79.63-3.63,1-5.43.37-1.63.9-3.22,1.3-4.85.88-3.56,1.76-7.12,2.57-10.7.59-2.6,1.11-5.21,1.59-7.83.71-3.88,1.36-7.76,2-11.65.52-3.1,1-6.22,1.52-9.33C469,123.71,469.16,122.94,469.32,122Z" transform="translate(-68.6 -12.02)"/><path id="H" class="cls-4" d="M415.16,158.7c-1.35,0-2.75,0-4.15,0-4.52.18-9.05.36-13.57.61-.89.05-1.8.67-2.65.58-1.54-.18-2.92.93-4.47.38a1.69,1.69,0,0,0-1,0q-4.6,1.62-9.2,3.3a7.5,7.5,0,0,0-1.13.61,26.93,26.93,0,0,1,.39,3.16c0,6.68,0,13.37,0,20.06,0,1.88.23,3.77.27,5.65s-.36,2.16-2.18,2.17H366.85c0-.33-.08-.86-.07-1.38.08-4.28.23-8.57.25-12.85.05-10.52,0-21,.07-31.55.12-13.55.39-27.09.56-40.64,0-1,.35-1.33,1.31-1.32,4.25,0,8.5,0,12.74,0,1.05,0,1.68.3,1.58,1.55-.43,5.27-.85,10.54-1.18,15.82-.18,3-.19,5.94-.27,8.9,0,.19.15.45.06.55-1.28,1.65-.53,3.56-.73,5.34q-.41,3.61-.8,7.23c-.07.68-.07,1.37-.11,2.13,11.44,1.64,22.57-.76,34.11-1.22-.26-3.88-.49-7.43-.74-11-.1-1.29-.27-2.57-.36-3.85q-.47-5.93-.89-11.85c-.21-2.76-.42-5.53-.62-8.29-.1-1.48-.19-3-.3-4.45,0-.79.21-1.18,1.09-1.19q6-.11,11.95-.3c1,0,1.23.36,1.42,1.35a15.83,15.83,0,0,1,.3,6.71c-.27,1.17-.34,2.38-.49,3.5l1.61.55c-1.16,2.79-1.25,3.34-.63,4.07-1.3,1.38-1.07,2.07,1.48,4.32-1.6,1.18-1.17,2.68-1.19,4.42,0,2.5.52,4.88.65,7.31s.26,4.68.28,7c0,1.49-.28,3-.23,4.48.07,2.43.36,4.85.47,7.28,0,.73-.3,1.48-.3,2.22,0,1.71.13,3.42.15,5.12,0,1-.08,2.06-.14,3.39l2.34,1.84c-1,.4-1.94.78-2.18,1.85-.07.31-.22.68-.11.92,1,2.24-.11,4.63.6,6.9a21,21,0,0,1,.58,3.56c0,.22-.3.46-.34.71-.08.46-.28,1.1-.06,1.37,1.44,1.79.53,3.83.67,5.74,0,.37-.73,1.13-1.15,1.14-3.4.1-6.8.06-10.45.06-1.18-10.06-2.41-20.46-3.62-30.77L413,160Z" transform="translate(-68.6 -12.02)"/><path id="C" class="cls-4" d="M355.81,125.76c-4-2.51-8.31-1.52-12.37-.67-3.78.78-7.38,2.4-11.06,3.65a41.92,41.92,0,0,0-6.15,2.2c-1.19.62-2,2-2.9,3.11a19.5,19.5,0,0,0-2,3.15,37.2,37.2,0,0,0-1.61,3.85c-.51,1.34-1,2.7-1.39,4.08-.49,1.68-.88,3.39-1.32,5.08a11.12,11.12,0,0,0-.84,3.22c.17,3.33.34,6.67,1.61,9.86.41,1,.25,2.24.51,3.33.48,2,2.06,3.22,3.64,4.28,4.25,2.85,8.55,5.65,12.91,8.34a20.2,20.2,0,0,0,6,2.92,14.32,14.32,0,0,0,6.43-.35,83.15,83.15,0,0,0,7.84-3,5.82,5.82,0,0,1,1.8,0c.3,3.36.54,6.64.88,9.92.2,1.94.54,3.88.84,5.81.13.86-.08,1.44-1.06,1.31s-2.11-.41-3.18-.56c-2.82-.43-5.64-.85-8.46-1.22-3.28-.43-6.61-.59-9.84-1.26-3.77-.78-7.49-1.87-11.17-3-2.78-.88-5.48-2-8.17-3.14a7.63,7.63,0,0,1-2.3-1.71c-3.34-3.35-6.75-6.65-9.89-10.18-1.28-1.44-1.93-3.44-2.85-5.19-1.27-2.39-.82-5-.93-7.53-.15-3.61-.59-7.23-.51-10.83.06-2.23.87-4.45,1.33-6.68a24.08,24.08,0,0,0,.93-4.74c0-3.11,1.47-5.73,2.64-8.39a31,31,0,0,1,4-5.89A25.67,25.67,0,0,1,313,121a73.27,73.27,0,0,1,7.61-5.35,26.38,26.38,0,0,1,5.07-2.39,29.81,29.81,0,0,1,5.78-1.51c3.71-.53,7.46-.9,11.2-1.21,2.63-.21,5.28-.22,7.91-.32h.6c3-.16,3.32.11,3.59,3.23C355.14,117.54,355.47,121.65,355.81,125.76Z" transform="translate(-68.6 -12.02)"/><path id="I" class="cls-4" d="M284,195.21c-1.67-.12-3.2-.16-4.72-.35-2.64-.33-5.25-.85-7.9-1.09-1.15-.11-1.41-.53-1.39-1.55.08-4.32.16-8.64.18-13,0-7.61.06-15.22,0-22.84-.06-10.26-.19-20.53-.31-30.8,0-1-.17-2-.14-2.93,0-.76,0-1.66,1.18-1.71l12.65-.6c1-.05,1.46,0,1.22,1.4-.55,3-.74,6.17-1,9.27-.34,3.33-.68,6.67-1,10-.15,1.9-.26,3.81-.24,5.71.07,11.47.09,22.93.33,34.39.08,3.89.75,7.76,1.11,11.64C284.05,193.54,284,194.28,284,195.21Z" transform="translate(-68.6 -12.02)"/><path id="L" class="cls-4" d="M199.23,191.22l1.11-.89-1.24-1.1a11.61,11.61,0,0,0,1.3-1.95,41.3,41.3,0,0,0,1.63-4.69c.41-1.5.14-3.51,1-4.48,2-2.12,1.05-5,2.49-7.16.43-.66.2-1.88,0-2.79-.15-.76,0-1,.7-1.23a1.78,1.78,0,0,0,1.24-2.1,5.73,5.73,0,0,1,1.21-4.28c.3-.37.18-1.13.19-1.7a10.62,10.62,0,0,1-.13-1.21A14.56,14.56,0,0,1,212,151c.56-.71.58-1.84.87-2.76.56-1.77,1.13-3.53,1.7-5.32-1.19-1.71-.78-2.11.05-3.87a20.16,20.16,0,0,0,1.61-6.75c.1-1.09,0-1.73,1.45-1.63-.23-.81-.44-1.49-.63-2.18-.46-1.72.66-3.08,1.3-4.43a3,3,0,0,0,.17-2.54c-.18-.48-.31-1-.5-1.59h1.57c.36-2.6.55-5.17,1.12-7.64a11,11,0,0,1,2-3.24c.09-.13.53-.1.77,0,2.12.63,4.22,1.3,6.34,1.93,1.73.51,3.47,1,5.2,1.46.92.28,1.8.65,2.82,1-.54,2.36-1.07,4.65-1.59,6.94-.71,3.14-1.35,6.3-2.12,9.43s-1.75,6.28-2.47,9.46c-.77,3.38-1.25,6.83-2,10.21-.55,2.37-1.34,4.69-2.09,7-1.26,3.85-2.57,7.68-3.87,11.51-.78,2.31-1.63,4.6-2.39,6.92s-1.4,4.63-2.12,6.94c-.32,1-.71,2-1.1,3.05l38,5.51c-.38,1.64-.61,3-1,4.38-.74,2.36-1.61,4.69-2.41,7a28.58,28.58,0,0,0-1.3,4c-.26,1.33-1,1.31-2,1q-7.83-2.33-15.64-4.71c-3.52-1.07-7-2.22-10.54-3.24s-7.37-2-11-3.06q-5.76-1.66-11.47-3.49C200.18,192.18,199.81,191.69,199.23,191.22Z" transform="translate(-68.6 -12.02)"/><path id="T_fest-2" data-name="T fest" class="cls-3" d="M654.17,349.58a106.21,106.21,0,0,0-24.58-7.5c-4.69-.87-9.22-2.56-13.84-3.82-1.66-.45-3.37-.76-5.06-1.09-5.91-1.12-11.82-2.2-17.71-3.34-3.22-.62-6.42-1.34-9.63-2-4.45-.94-8.92-1.85-13.37-2.84-4.88-1.09-9.75-2.31-14.64-3.38-2.23-.49-4.52-.69-6.76-1.17-3.54-.76-7.06-1.65-11.39-2.67-1.39,6.73-2.71,13.09-4.14,20l41.61,9.55c-2.4,9.88-4.56,19.09-6.88,28.25-1,4.05-2.43,8-3.54,12s-2,8-3,11.93c-1.35,5.15-2.77,10.28-4.16,15.43-1.13,4.2-2.14,8.44-3.43,12.59-1,3.34-2.52,6.53-3.63,9.85s-2.07,7-3.13,10.44c-1.17,3.8-2.41,7.58-3.6,11.37s-2.27,7.64-3.54,11.41c-1.42,4.21-2.88,8.4-4.53,12.52-1.11,2.75-.82,3.31,1.9,3.91,5.85,1.29,11.63,2.92,17.49,4.19,3.66.8,7.4,1.2,11.63,1.86,1-5,1.93-9.78,2.86-14.57.77-3.94,1.54-7.88,2.27-11.83.4-2.15.66-4.34,1.07-6.49.92-4.73,2-9.45,2.84-14.2.6-3.23.94-6.52,1.57-9.75,1.6-8.24,3.4-16.45,5-24.7,1.35-7.17,2.34-14.4,3.7-21.56s3.19-14.45,4.54-21.71c1.06-5.72,1.81-11.51,2.48-17.29.2-1.69,1-1.76,2.18-1.56,3.86.69,7.72,1.39,11.56,2.2,5.62,1.19,11.21,2.5,16.83,3.72q11.37,2.46,22.77,4.83c2.94.62,3.51-.06,4.42-3.24C651.31,357.14,652.8,353.47,654.17,349.58Z" transform="translate(-68.6 -12.02)"/><path id="S-3" data-name="S" class="cls-3" d="M518.56,352.27a26.52,26.52,0,0,0-.6,3.11c-.24,3.84.06,7.62-1.48,11.44-1,2.47-.34,5.61-.43,8.46,0,1.75-.82,2.75-2.72,2.47-6.46-.92-12.9-2-19.39-2.73q-10.08-1.12-20.22-1.6a17.54,17.54,0,0,0-7.5,1.09c-4,1.69-5.2,5.86-6.24,9.56a24.78,24.78,0,0,0-.33,9,20.9,20.9,0,0,0,8.65,15.15c3.45,2.52,7.36,4.4,11,6.64,1.63,1,3.15,2.17,4.71,3.29,3.73,2.67,7.88,4.92,11.05,8.14a59.74,59.74,0,0,1,8.25,11.52,35.7,35.7,0,0,1,4.28,10,24,24,0,0,1,.08,9.85,49.77,49.77,0,0,1-5.82,16c-2.14,3.53-5.33,5.8-8.59,8-11.21,7.53-23.43,12.33-37.12,11-7.13-.67-14.36-.47-21.42-2.47-6-1.69-12.29-2.29-18.42-3.53-1.78-.37-3-1.35-2.39-3.71a48.47,48.47,0,0,0,1-6.73c.57-4.5,1-9,1.82-13.49.11-.65,1.88-1.54,2.79-1.44,6,.6,11.87,1.63,17.83,2.15a174.76,174.76,0,0,0,20.31,1c6.08-.18,12.06-1.44,16.92-5.84,3.8-3.45,5.74-12.15,4-16.64-.51-1.31-1.68-2.35-2.47-3.57C472,432.2,466,427.85,460.8,422.71c-4.62-4.57-8.67-9.69-13.24-14.32-3.61-3.67-3.74-8.32-4.37-12.84-.56-4.08-.87-8.19-1.12-12.3-.28-4.49,1-8.75,2.62-12.85,3.23-8,9.53-13.57,16.36-18.1a20.77,20.77,0,0,1,12-3.43c8.46.27,16.94-.55,25.4-.3,4.82.14,9.61,1.43,14.41,2.3C514.78,351.22,516.68,351.8,518.56,352.27Z" transform="translate(-68.6 -12.02)"/><path id="E-2" data-name="E" class="cls-3" d="M325.22,432.79c.41,6.57.93,13,1.17,19.41.16,4.26-.2,8.54-.12,12.8.16,7.8.2,8,7.92,8.78,5.62.57,11.31.5,17,.81,3.85.21,7.68.59,11.52.9,6.87.56,13.74,1.05,20.59,1.7,3.12.29,3.58,1.44,3.23,4.59-.83,7.28-1.47,14.58-2,21.88-.21,2.81-.91,3.63-3.55,3.33-14.39-1.59-28.76-3.33-43.16-4.69-11.58-1.09-23.21-1.72-34.81-2.56-.91-.07-1.82-.24-3-.4.17-4.45.19-8.8.53-13.12.91-11.44,2-22.87,2.92-34.31.6-7.55,1.1-15.11,1.4-22.68.41-10.21.52-20.42.9-30.63.11-2.84.87-5.65,1.07-8.5.48-6.93.78-13.88,1.22-20.81.23-3.66.68-7.3.85-11,.11-2.15-.13-4.31-.23-6.83,4.76.05,9.31.13,13.85.15,6.47,0,13,0,19.42,0,2.27,0,4.55.09,6.83.22,7.49.44,15,1,22.47,1.33,6.08.25,12.17.21,18.26.33,1.9,0,3.25.4,3.07,3-.38,5.38-.44,10.78-.53,16.18,0,2.35-1.06,3.32-3.39,3-2.56-.37-5.11-.78-7.68-1-8.79-.86-17.58-1.7-26.37-2.45-5.2-.45-10.41-.73-15.61-1a3.58,3.58,0,0,0-2.14.7c-1.24,1-2.2,2.39-3.56,3.07-.63.31-1.91-.67-2.64-1-.81,12.21-1.64,24.77-2.49,37.55,2.26.3,4.41.67,6.58.87,2.64.26,5.3.35,7.94.56,10.48.85,20.95,1.78,31.43,2.55,4.36.32,8.75.25,13.12.51.57,0,1.56,1,1.55,1.52q-.18,8.11-.71,16.22c0,.48-1.06,1.28-1.63,1.28-3.66,0-7.32-.21-11-.32-6.84-.21-13.69-.37-20.53-.63-4.66-.17-9.31-.49-14-.7C335.89,433.21,330.88,433,325.22,432.79Z" transform="translate(-68.6 -12.02)"/><path id="F-2" data-name="F" class="cls-3" d="M224.67,447.38c-.08,1.08-.19,2.34-.32,3.89-3.1,1-3,3.33-2.18,6.4a94,94,0,0,1,2.11,11.86c1.18,8.21,2.2,16.44,3.38,24.65.76,5.24,1.52,10.5,2.63,15.67.43,2-.24,2.77-1.8,3.08-3.85.79-7.72,1.46-11.59,2.07-1.86.3-3.85.06-5.61.62-2.26.71-3-.1-3.3-2.12-.79-5.88-1.52-11.77-2.41-17.63-.71-4.66-1.64-9.28-2.45-13.91-.34-2-.67-4-.95-6-.92-6.72-1.74-13.47-2.75-20.18-1.22-8.09-2.72-16.15-3.88-24.25-1.77-12.42-3.28-24.88-5.05-37.3-1.2-8.42-2.71-16.78-4-25.18-.85-5.55-1.5-11.12-2.37-16.66a2.11,2.11,0,0,1,2-2.76c7.54-1.23,15.09-2.35,22.62-3.61,6.63-1.12,13.22-2.49,19.87-3.55s13.53-1.82,20.28-2.86c5.84-.9,11.64-2,17.46-3a8,8,0,0,1,3.25-.16,3,3,0,0,1,1.83,1.82c1.12,5,2.08,10,3.08,15.05.78,3.95,1.59,7.91,2.29,11.88.4,2.31-1.44,2.32-2.93,2.52-6.63.88-13.25,1.79-19.89,2.56-8.95,1-17.91,1.91-26.86,2.91-2.66.29-5.32,1.07-8,1.05-2.8,0-3,1.62-2.83,3.5.29,2.89.86,5.75,1.36,8.62,1.24,7,2.46,14.07,3.79,21.09a64.92,64.92,0,0,0,2.3,9.41A4,4,0,0,0,227,419c5-.5,9.9-1.42,14.85-2.19,3.75-.58,7.5-1.14,11.24-1.74,2.36-.37,4.71-.86,7.09-1.18s3,1,3.16,3.2c.39,4.16,1.21,8.28,1.83,12.42.46,3.08,1.06,6.15,1.29,9.25.28,3.8-3.31,2.51-4.89,2.83-7.33,1.51-14.78,2.43-22.19,3.56Z" transform="translate(-68.6 -12.02)"/><path id="T-2" data-name="T" class="cls-3" d="M496.58,210.13c.29,5.58.57,10.93.86,16.63l-23-1.87c0,2.14-.08,4.31,0,6.47.24,5.29.49,10.57.88,15.84.51,7.11,1.16,14.2,1.74,21.3.07.84,0,1.7.05,2.54.23,2.3.54,4.58.78,6.88.09.89,0,1.79.12,2.68.24,2.3.54,4.59.8,6.89.34,2.94.63,5.88,1,8.81.16,1.26.49,2.5.71,3.76a5.6,5.6,0,0,1,.13,1.9c-.08.38-.62.93-.95.94q-7.87.09-15.74,0c-.73,0-1.15-.32-1.12-1.29.21-6.09.35-12.18.46-18.27.13-7.13.29-14.25.27-21.37,0-4-.45-7.94-.55-11.91-.17-6.67-.22-13.35-.32-20,0-.19,0-.39-.09-.94l-24.3,4.33c-.19-1.75-.38-3.11-.48-4.48-.23-3.36-.37-6.72-.63-10.08-.11-1.45.67-1.74,1.85-1.89,5.09-.66,10.17-1.39,15.26-2.05,3.47-.45,6.95-.79,10.42-1.25,3.17-.42,6.32-1,9.48-1.42,1.08-.16,2.16-.23,3.24-.36,5.09-.59,10.18-1.22,15.27-1.77A38.15,38.15,0,0,1,496.58,210.13Z" transform="translate(-68.6 -12.02)"/><path id="S-4" data-name="S" class="cls-3" d="M449.31,248.86c-.16,1.23-.24,2.36-.46,3.45-.65,3.18-1.37,6.34-2.05,9.51-.25,1.2-.88,1.47-2,1.2-2.68-.63-5.36-1.23-8.07-1.68-3.2-.53-6.43-1-9.67-1.3a67,67,0,0,0-8.61-.43c-1.09,0-2.12,1.13-3.22,1.63a6.86,6.86,0,0,0-3.86,3.55c-.67,1.53-.63,2.39,1,3.13,2.79,1.26,5.69,2.29,8.41,3.67s5.34,3.05,7.93,4.68c1.92,1.21,3.78,2.52,5.6,3.88a33,33,0,0,1,4.06,3.49,3.93,3.93,0,0,1,.93,2.52c0,2.88-.08,5.77-.29,8.64a30.86,30.86,0,0,1-.85,3.73c-.38,1.88-.75,3.76-1,5.66-.41,2.71-2.33,4.67-3.38,7.06-1.52,3.48-5,4.39-8,6a46.37,46.37,0,0,1-7.17,3.28c-2.3.8-4.69,1.65-7.21,1.26-3.4-.52-6.78-1.15-10.18-1.72-2.23-.36-4.49-.58-6.7-1.06-2.77-.61-5.49-1.44-8.24-2.14-2.28-.59-4.56-1.13-7.19-1.78.56-2.16,1.07-4.23,1.62-6.28.43-1.59.94-3.16,1.35-4.76.24-.94.53-1.41,1.7-1.16,3.27.71,6.59,1.18,9.87,1.86,3.44.71,6.82,1.68,10.28,2.29,3.81.67,7.66,1.16,11.52,1.54a7,7,0,0,0,5.43-2c1.42-1.26,3-2.4,4.3-3.73a3.92,3.92,0,0,0,.7-2c.5-3.21,1-6.41,1.34-9.64,0-.55-.81-1.24-1.33-1.78a24.1,24.1,0,0,0-10.48-6.33c-4.32-1.35-8.74-2.41-13-3.88-1.17-.4-1.95-1.85-2.95-2.79-3-2.82-4.35-6.61-5.54-10.32a8.91,8.91,0,0,1,1.18-8.43c1.64-2.2,2.54-4.93,4.76-6.74,3.54-2.88,7.19-5.48,11.93-6.1,2.12-.27,4.17-1.16,6.29-1.35a26.89,26.89,0,0,1,6.52.28c4.31.65,8.6,1.47,12.88,2.33,2,.41,3.95,1.11,5.95,1.58S447.16,248.44,449.31,248.86Z" transform="translate(-68.6 -12.02)"/><path id="N-2" data-name="N" class="cls-3" d="M323.59,207.25c3.06-.15,5.94-.32,8.82-.38a1.83,1.83,0,0,1,1.42.73c2.09,3.86,4.07,7.78,6.14,11.65s4.24,7.67,6.36,11.5c1.3,2.37,2.54,4.77,3.89,7.11,2,3.44,4.07,6.83,6.08,10.26,2.8,4.78,5.57,9.58,8.35,14.37,1.92,3.3,3.89,6.58,5.75,9.91.91,1.61,1.62,3.33,2.66,5-.25-2.5-.49-5-.75-7.49-.05-.49-.15-1-.18-1.47-.39-6.73-.84-13.46-1.15-20.19-.22-4.72-.34-9.45-.32-14.18,0-4.41.33-8.83.43-13.24.1-4.72.1-9.43.13-14.15,0-.53-.07-1.06-.11-1.73a9.4,9.4,0,0,1,1.22-.24c3.36-.29,6.71-.58,10.08-.81.77,0,1.41.2.92,1.27a3.76,3.76,0,0,0-.1,1.47c0,11.68,0,23.36,0,35,0,4,.2,8.06.22,12.1q0,9.71,0,19.41c0,5.22-.16,10.43-.17,15.65a23.6,23.6,0,0,0,.53,3.56c-.38,0-.76.08-1.14.09-3.63.07-7.27.16-10.9.15a2,2,0,0,1-1.38-.87c-2.62-4.05-5.18-8.14-7.76-12.22q-3.36-5.29-6.7-10.61t-6.61-10.71q-3.29-5.37-6.51-10.79c-2-3.4-4-6.85-6-10.24-1.3-2.17-2.7-4.28-4.27-6.76.24,1.72.53,3.05.6,4.39.17,3.57.22,7.15.37,10.72.16,3.77.51,7.54.57,11.31.17,10.21.23,20.43.33,30.64,0,1.62,0,3.24.09,4.85,0,1-.53,1.31-1.36,1.33-3.24.05-6.48.09-9.72.07a1.66,1.66,0,0,1-1.21-.62c-.15-.23.19-.77.28-1.17a14.2,14.2,0,0,0,.49-2.7c.05-7,0-14,.06-21,.14-11.85.38-23.7.56-35.55,0-2.13,0-4.25,0-6.38V208.17C323.55,207.88,323.57,207.59,323.59,207.25Z" transform="translate(-68.6 -12.02)"/><path id="U-2" data-name="U" class="cls-3" d="M260.48,219.84a13.69,13.69,0,0,0,.95-1.64c.27-.62.39-1.3.63-1.93.4-1,1-1.24,2.12-.86,2.72.92,5.5,1.66,8.24,2.53.83.26,1.6.69,2.57,1.11-.52,1.83-1.11,3.71-1.6,5.61-.57,2.23-1,4.51-1.6,6.72-1.11,4-2.33,7.91-3.51,11.87-1.25,4.19-2.52,8.38-3.76,12.57s-2.46,8.09-3.5,12.18a65.05,65.05,0,0,0-1,6.71,15,15,0,0,1-.34,2.62,6.05,6.05,0,0,0,.37,4.45c1.33,3.1,2.15,6.5,4.49,9a24.14,24.14,0,0,0,4.79,3.42,7.23,7.23,0,0,0,5,1c2.4-.3,4.86-.18,7.28-.39a5.08,5.08,0,0,0,2.34-1,23.74,23.74,0,0,0,7.33-8.9,29,29,0,0,0,3.06-8.62A94.94,94.94,0,0,1,296.61,266c.71-2.83,1.72-5.59,2.34-8.44.83-3.76,1.4-7.59,2.12-11.38.46-2.45,1-4.88,1.47-7.33.55-3,1-6.1,1.53-9.14.16-.91.49-1.8.78-2.82,2.22.55,4.44,1.06,6.65,1.65,1.57.41,3.13.86,4.65,1.41a1.46,1.46,0,0,1,.73,1.19,39.41,39.41,0,0,1-.78,4c-.8,3.57-1.69,7.12-2.41,10.7-.52,2.59-.77,5.24-1.25,7.84-.85,4.64-1.82,9.26-2.68,13.89-.75,4-1.28,8.07-2.17,12.05-.57,2.53-1.81,4.91-2.43,7.43a32.79,32.79,0,0,1-8.25,14.47c-2.79,3-6.48,4.32-10.34,5-3.31.56-6.72.47-10,1s-6.15-.2-9.1-1a24.29,24.29,0,0,1-12.87-8.06,22.79,22.79,0,0,1-4.31-7,58.27,58.27,0,0,1-2-8.38,78.28,78.28,0,0,1-1.18-8.6c-.14-2,.28-4.1.29-6.15,0-1.41,1.08-2.21,1.54-3.34.38-.94,1-1.73.47-3-.27-.64.67-1.81,1.07-2.73a8.14,8.14,0,0,0,.48-1c.48-1.87,1-3.75,1.38-5.64.26-1.3.3-2.64.55-3.94.43-2.18,1.13-4.32,1.37-6.51s1.7-4,1.89-5.84c.36-3.48,1.9-6.53,2.8-9.78.47-1.71.28-3.86,1.86-5.3C261,221,260.57,220.18,260.48,219.84Z" transform="translate(-68.6 -12.02)"/><path id="K-2" data-name="K" class="cls-3" d="M179.09,233.38l14.74-2.51c.92,3.85,1.79,7.39,2.62,10.94s1.6,7,2.43,10.56c.68,2.89,1.32,5.81,2.17,8.66.18.62,1.14,1,1.88,1.63,1.37-1.74,2.66-3.39,4-5,4-5.09,8-10.14,12-15.27,2.72-3.53,5.31-7.16,8-10.76,1.71-2.34,3.36-4.71,5.12-7a3,3,0,0,1,1.63-1,41.16,41.16,0,0,1,4.8-.83c.4,0,1.2.4,1.24.7.39,2.79.57,5.62,1,8.41.27,1.8-.95,2.84-1.81,4-2.48,3.43-5.11,6.77-7.67,10.14-3.5,4.6-7,9.18-10.48,13.79-3.2,4.24-6.37,8.52-9.55,12.78-.69.92.22,1.27.67,1.62,2.35,1.82,4.8,3.51,7.14,5.34,4.07,3.19,8.08,6.46,12.13,9.68,3.34,2.66,6.7,5.29,10.06,7.94,1.54,1.22,3.09,2.43,4.59,3.68.21.17.24.6.29.91.29,2.05.63,4.09.83,6.15.22,2.31.31,2.58-2,2.79-2.06.18-4.08.66-6.14.94a2.27,2.27,0,0,1-1.63-.26q-6-5.28-12-10.68c-4.95-4.47-9.87-9-14.83-13.43-2.82-2.53-5.69-5-8.53-7.51-.46-.42-.86-.91-1.45-1.55,1.16,13.24,2.31,26.29,3.48,39.69l-13.78,2.56C188,291.09,185.66,262,179.09,233.38Z" transform="translate(-68.6 -12.02)"/><path id="T_licht-2" data-name="T licht" class="cls-3" d="M465.06,117.72l-9.75-.65c-5.34-.39-10.68-.81-16-1.18-1.1-.08-2.2,0-3.3,0s-1.37-.18-1.17-1.39c.65-4,1.1-8.11,1.64-12.17a18.62,18.62,0,0,1,.46-1.82c1.86.15,3.72.28,5.58.45s3.63.36,5.45.56c2.2.26,4.4.58,6.6.8,1.77.18,3.56.25,5.33.4,3.55.29,7.1.58,10.64.92,2.64.25,5.28.61,7.92.89,2.89.31,5.79.53,8.67.9,3.68.46,7.35,1,10.95,1.55-.45,4-.94,7.82-1.3,11.68-.1,1.1-.62,1.21-1.46,1.11-3.22-.39-6.45-.74-9.67-1.2-2.78-.4-5.53-1-8.31-1.4a11.3,11.3,0,0,0-1.67,0c-.28,3.53-.46,7-.84,10.49-.48,4.32-1.15,8.62-1.68,12.93-.48,3.87-.82,7.75-1.31,11.62-.4,3.12-.94,6.22-1.39,9.34-.35,2.49-.65,5-1,7.47q-.9,6.28-1.84,12.56c-.15,1-.8,1.2-1.73,1.06-4-.62-8.07-1.19-12.11-1.76-1-.15-1.54-1.33-1.17-2.9.64-2.65,1.41-5.26,2-7.92.42-1.79.63-3.64,1-5.43.36-1.63.9-3.23,1.3-4.85.88-3.56,1.76-7.12,2.57-10.7.59-2.6,1.11-5.21,1.59-7.83.71-3.88,1.36-7.76,2-11.65.53-3.11,1-6.22,1.53-9.33C464.79,119.46,464.91,118.69,465.06,117.72Z" transform="translate(-68.6 -12.02)"/><path id="H-2" data-name="H" class="cls-3" d="M410.9,154.44c-1.35,0-2.75,0-4.14,0-4.53.18-9.05.36-13.57.61-.89.05-1.8.67-2.65.57-1.54-.17-2.92.94-4.47.39a1.62,1.62,0,0,0-1,0q-4.62,1.62-9.2,3.3a8,8,0,0,0-1.13.6,27.24,27.24,0,0,1,.38,3.17c0,6.68,0,13.37,0,20.06,0,1.88.22,3.77.27,5.65s-.36,2.16-2.18,2.16H362.59c0-.33-.07-.86-.06-1.38.08-4.29.23-8.57.25-12.85.05-10.52,0-21,.06-31.55.13-13.55.4-27.1.57-40.64,0-1,.34-1.33,1.31-1.32,4.25,0,8.49,0,12.74,0,1.05,0,1.67.3,1.57,1.54-.42,5.28-.84,10.55-1.17,15.83-.18,3-.19,5.94-.27,8.9,0,.19.14.45.06.55-1.28,1.65-.53,3.56-.73,5.34q-.41,3.61-.8,7.23c-.07.68-.07,1.37-.11,2.13,11.44,1.64,22.57-.77,34.11-1.23-.26-3.87-.49-7.42-.75-11-.09-1.29-.26-2.57-.36-3.85q-.45-5.93-.88-11.85-.31-4.15-.62-8.29c-.11-1.49-.19-3-.3-4.45-.06-.79.2-1.18,1.09-1.19q6-.11,11.95-.31c1,0,1.23.37,1.42,1.36a15.83,15.83,0,0,1,.3,6.71c-.27,1.17-.34,2.38-.49,3.49l1.61.55c-1.17,2.8-1.25,3.34-.64,4.07-1.29,1.38-1.06,2.07,1.49,4.33-1.6,1.17-1.17,2.68-1.19,4.42,0,2.5.52,4.87.65,7.31s.26,4.68.28,7c0,1.5-.28,3-.23,4.49.07,2.43.36,4.85.47,7.28,0,.73-.31,1.48-.31,2.22,0,1.7.14,3.41.16,5.12,0,1-.08,2.06-.14,3.38l2.34,1.85c-1,.4-1.94.77-2.18,1.85-.07.3-.22.68-.11.92,1,2.24-.11,4.63.59,6.9a19.06,19.06,0,0,1,.58,3.55c0,.22-.29.47-.33.72-.08.46-.28,1.1-.06,1.37,1.44,1.79.52,3.83.67,5.74,0,.36-.73,1.13-1.15,1.14-3.4.1-6.8.05-10.45.05-1.18-10.05-2.41-20.45-3.63-30.77l-1.17-2Z" transform="translate(-68.6 -12.02)"/><path id="C-2" data-name="C" class="cls-3" d="M351.55,121.51c-4-2.51-8.3-1.53-12.37-.68-3.77.79-7.38,2.41-11.05,3.66a43.08,43.08,0,0,0-6.15,2.19c-1.19.63-2,2-2.9,3.12a19.5,19.5,0,0,0-2,3.15,34.39,34.39,0,0,0-1.62,3.85c-.5,1.34-1,2.7-1.39,4.08-.48,1.68-.87,3.39-1.32,5.08a11.83,11.83,0,0,0-.84,3.21c.18,3.33.34,6.68,1.62,9.86a25.31,25.31,0,0,1,.51,3.34c.48,2,2.06,3.22,3.63,4.27,4.26,2.86,8.56,5.66,12.92,8.35a20.44,20.44,0,0,0,6,2.92,14.28,14.28,0,0,0,6.42-.35c2.69-.71,5.22-2,7.84-3a5.9,5.9,0,0,1,1.81,0c.29,3.35.54,6.64.88,9.91.2,1.95.54,3.88.84,5.82.13.86-.08,1.43-1.06,1.31s-2.11-.41-3.18-.57c-2.82-.42-5.64-.84-8.47-1.21-3.27-.43-6.6-.59-9.83-1.26-3.77-.78-7.49-1.87-11.17-3-2.78-.88-5.49-2-8.17-3.14a7.83,7.83,0,0,1-2.31-1.72c-3.34-3.35-6.75-6.64-9.88-10.17-1.28-1.44-1.93-3.44-2.86-5.2-1.26-2.39-.82-5-.92-7.52-.15-3.62-.6-7.23-.51-10.83,0-2.24.86-4.45,1.33-6.68a24.08,24.08,0,0,0,.93-4.74c0-3.11,1.46-5.73,2.63-8.39a31,31,0,0,1,4-5.89,25.26,25.26,0,0,1,3.86-4.49,73.27,73.27,0,0,1,7.61-5.35,25.53,25.53,0,0,1,5.07-2.39,29.81,29.81,0,0,1,5.78-1.51c3.71-.54,7.46-.9,11.2-1.21,2.63-.21,5.27-.22,7.91-.32h.6c3-.16,3.32.1,3.59,3.23Q351.06,115.34,351.55,121.51Z" transform="translate(-68.6 -12.02)"/><path id="I-2" data-name="I" class="cls-3" d="M279.74,191c-1.68-.12-3.21-.17-4.72-.36-2.64-.33-5.26-.84-7.9-1.08-1.15-.11-1.41-.53-1.39-1.55.08-4.32.16-8.65.17-13,0-7.61.07-15.23,0-22.84-.06-10.27-.2-20.53-.31-30.8,0-1-.17-2-.14-2.93,0-.76,0-1.66,1.18-1.71l12.64-.6c1-.05,1.47,0,1.22,1.4-.54,3-.73,6.17-1,9.26-.33,3.34-.67,6.68-.94,10-.15,1.9-.26,3.81-.25,5.71.08,11.46.1,22.93.34,34.39.08,3.88.74,7.76,1.11,11.64C279.8,189.28,279.74,190,279.74,191Z" transform="translate(-68.6 -12.02)"/><path id="L-2" data-name="L" class="cls-3" d="M195,187l1.11-.89-1.25-1.1a11.09,11.09,0,0,0,1.31-1.95,43.29,43.29,0,0,0,1.62-4.69c.42-1.5.14-3.51,1-4.48,2-2.12,1-5,2.48-7.16.44-.66.21-1.88,0-2.79-.15-.76,0-1,.7-1.23a1.78,1.78,0,0,0,1.24-2.11,5.79,5.79,0,0,1,1.2-4.28c.31-.36.19-1.12.2-1.7a7.21,7.21,0,0,1-.13-1.2,14.55,14.55,0,0,1,3.21-6.68c.56-.7.58-1.83.87-2.75.55-1.77,1.13-3.54,1.7-5.32-1.19-1.71-.79-2.11,0-3.88A20.35,20.35,0,0,0,212,128c.1-1.1,0-1.73,1.45-1.63-.24-.81-.44-1.5-.63-2.19-.46-1.71.66-3.07,1.29-4.42a2.94,2.94,0,0,0,.17-2.54c-.17-.48-.31-1-.5-1.59h1.58c.36-2.6.55-5.17,1.12-7.64a11,11,0,0,1,2-3.24c.09-.13.53-.1.76,0,2.12.63,4.23,1.3,6.35,1.93,1.73.51,3.47,1,5.2,1.46.91.28,1.8.65,2.82,1-.54,2.35-1.07,4.64-1.59,6.94-.71,3.14-1.36,6.3-2.12,9.43s-1.75,6.28-2.47,9.46c-.77,3.38-1.25,6.83-2,10.21-.55,2.37-1.34,4.69-2.1,7-1.25,3.84-2.56,7.67-3.86,11.5-.78,2.32-1.63,4.61-2.39,6.93s-1.4,4.63-2.12,6.94c-.32,1-.71,2-1.1,3.05l38,5.5c-.38,1.65-.61,3-1,4.39-.75,2.36-1.61,4.69-2.41,7a30.63,30.63,0,0,0-1.31,4c-.25,1.32-1,1.31-1.94,1q-7.83-2.32-15.65-4.7c-3.51-1.07-7-2.22-10.53-3.25s-7.37-2-11-3.05c-3.84-1.11-7.66-2.29-11.47-3.49C195.93,187.93,195.56,187.43,195,187Z" transform="translate(-68.6 -12.02)"/></g></svg>